<svg xmlns="http://www.w3.org/2000/svg" xmlns:xlink="http://www.w3.org/1999/xlink" width="1296" zoomAndPan="magnify" viewBox="0 0 1296 1727.999927" height="1727.999927" preserveAspectRatio="xMidYMid meet" version="1.0"><rect x="-129.6" width="1555.2" fill="rgb(100%, 100%, 100%)" y="-172.799993" height="2073.599912" fill-opacity="1"/><rect x="-129.6" width="1555.2" fill="rgb(100%, 100%, 100%)" y="-172.799993" height="2073.599912" fill-opacity="1"/><path fill="rgb(15.289307%, 44.709778%, 87.059021%)" d="M 0.00390625 790.789062 L 1295.996094 790.789062 L 1295.996094 1728.289062 L 0.00390625 1728.289062 L 0.00390625 790.789062 " fill-opacity="1" fill-rule="nonzero"/><path fill="rgb(81.17981%, 52.159119%, 41.569519%)" d="M 720.46875 1207.882812 C 720.46875 1207.882812 789.355469 1243.769531 803.417969 1248.292969 C 817.484375 1252.8125 949.167969 1287.5625 957.449219 1285.871094 C 965.730469 1284.179688 973.785156 1269.554688 981.96875 1262.6875 C 990.148438 1255.816406 1027.695312 1234.90625 1033.402344 1235.96875 C 1039.109375 1237.027344 1045.550781 1250.136719 1006.4375 1268.796875 C 1006.4375 1268.796875 1043.199219 1265.816406 1053.046875 1265.515625 C 1062.894531 1265.210938 1093.980469 1263.847656 1100.417969 1267.890625 C 1100.597656 1268.242188 1115.820312 1269.910156 1114.585938 1279.253906 C 1113.347656 1288.597656 1105.242188 1288.902344 1099.105469 1294.710938 C 1092.96875 1300.519531 1089.003906 1310.417969 1073.703125 1317.894531 C 1058.402344 1325.367188 1035.953125 1334.890625 1018.152344 1336.707031 C 998.355469 1338.351562 978.550781 1338.484375 958.738281 1337.113281 C 945.910156 1335.925781 836.347656 1310.722656 820.285156 1311.65625 C 804.226562 1312.589844 754.28125 1304.078125 731.910156 1293.496094 C 705.09375 1280.742188 611.640625 1279.886719 611.640625 1279.886719 C 611.640625 1279.886719 720.875 1206.597656 720.46875 1207.882812 Z M 720.46875 1207.882812 " fill-opacity="1" fill-rule="nonzero"/><path fill="rgb(68.629456%, 41.569519%, 35.289001%)" d="M 322.644531 817.671875 C 309.492188 798.160156 294.339844 780.347656 277.191406 764.234375 C 248.027344 736.730469 252.496094 684.429688 292.695312 669.605469 C 286.308594 597.171875 353.628906 588.234375 383.800781 598.234375 C 413.976562 608.234375 424.203125 628.539062 478.644531 620.15625 C 518.363281 613.941406 548.386719 697.988281 459.148438 714.835938 L 363.195312 845.351562 Z M 322.644531 817.671875 " fill-opacity="1" fill-rule="nonzero"/><path fill="rgb(81.17981%, 52.159119%, 41.569519%)" d="M 373.070312 794.742188 C 386.832031 780.953125 376.226562 753.804688 378.75 746 C 381.277344 738.195312 391.378906 735.34375 417.863281 723.042969 C 444.351562 710.742188 441.398438 687.6875 444.859375 671.953125 C 448.316406 656.21875 480.386719 651.75 480.386719 651.75 C 480.386719 651.75 499.097656 706.550781 509.601562 734.507812 C 520.105469 762.464844 529.070312 810.449219 511.445312 836.714844 C 493.820312 862.980469 454.933594 863.332031 454.933594 863.332031 C 448.59375 882.828125 469.628906 903.890625 469.628906 903.890625 L 497.558594 907.148438 C 497.558594 907.148438 481.015625 944.878906 443.925781 957.660156 C 406.832031 970.4375 362.441406 941.699219 362.441406 941.699219 C 363.929688 928.917969 346.429688 906.34375 346.429688 906.34375 C 355.066406 887.90625 352.742188 809.3125 352.742188 809.3125 C 352.742188 809.3125 310.574219 817.394531 313.757812 782.945312 C 316.9375 748.5 357.792969 766.226562 357.792969 766.226562 Z M 373.070312 794.742188 " fill-opacity="1" fill-rule="nonzero"/><path fill="rgb(9.408569%, 14.509583%, 23.139954%)" d="M 467.128906 795.195312 C 459.992188 795.160156 453.183594 793.644531 446.703125 790.648438 C 446.527344 790.5625 446.375 790.445312 446.25 790.296875 C 446.121094 790.152344 446.027344 789.984375 445.96875 789.796875 C 445.910156 789.613281 445.886719 789.421875 445.90625 789.230469 C 445.921875 789.035156 445.976562 788.851562 446.070312 788.679688 C 446.160156 788.511719 446.28125 788.363281 446.429688 788.242188 C 446.578125 788.117188 446.746094 788.027344 446.929688 787.972656 C 447.113281 787.914062 447.304688 787.894531 447.496094 787.914062 C 447.6875 787.929688 447.867188 787.984375 448.039062 788.074219 C 449.023438 788.578125 472.835938 800.550781 492.378906 782.316406 C 492.519531 782.179688 492.679688 782.078125 492.855469 782.003906 C 493.035156 781.933594 493.222656 781.898438 493.414062 781.898438 C 493.609375 781.898438 493.792969 781.933594 493.972656 782.003906 C 494.152344 782.078125 494.3125 782.179688 494.449219 782.316406 C 494.589844 782.453125 494.695312 782.613281 494.769531 782.789062 C 494.84375 782.96875 494.878906 783.15625 494.878906 783.351562 C 494.878906 783.546875 494.84375 783.730469 494.769531 783.910156 C 494.695312 784.089844 494.589844 784.25 494.449219 784.386719 C 492.632812 786.128906 490.664062 787.679688 488.542969 789.039062 C 486.421875 790.398438 484.191406 791.542969 481.847656 792.46875 C 479.507812 793.394531 477.097656 794.089844 474.621094 794.546875 C 472.144531 795.007812 469.648438 795.222656 467.128906 795.195312 Z M 467.128906 795.195312 " fill-opacity="1" fill-rule="nonzero"/><path fill="rgb(9.408569%, 14.509583%, 23.139954%)" d="M 465.890625 811.15625 C 465.183594 811.195312 464.476562 811.195312 463.769531 811.15625 C 463.578125 811.144531 463.394531 811.09375 463.222656 811.007812 C 463.046875 810.921875 462.898438 810.804688 462.773438 810.65625 C 462.644531 810.507812 462.554688 810.34375 462.496094 810.15625 C 462.4375 809.972656 462.414062 809.785156 462.433594 809.589844 C 462.453125 809.398438 462.507812 809.21875 462.59375 809.050781 C 462.683594 808.878906 462.800781 808.730469 462.945312 808.609375 C 463.09375 808.484375 463.257812 808.390625 463.4375 808.328125 C 463.621094 808.265625 463.808594 808.242188 464 808.253906 C 464.148438 808.253906 478.441406 809.289062 486.953125 801.207031 C 487.089844 801.070312 487.246094 800.964844 487.425781 800.890625 C 487.605469 800.816406 487.792969 800.777344 487.988281 800.777344 C 488.179688 800.777344 488.367188 800.816406 488.546875 800.890625 C 488.726562 800.964844 488.882812 801.070312 489.023438 801.207031 C 489.164062 801.34375 489.269531 801.5 489.347656 801.679688 C 489.421875 801.859375 489.460938 802.046875 489.460938 802.242188 C 489.460938 802.4375 489.421875 802.625 489.347656 802.804688 C 489.269531 802.984375 489.164062 803.140625 489.023438 803.277344 C 481.496094 810.347656 470.511719 811.15625 465.890625 811.15625 Z M 465.890625 811.15625 " fill-opacity="1" fill-rule="nonzero"/><path fill="rgb(9.408569%, 14.509583%, 23.139954%)" d="M 433.847656 795.726562 C 433.65625 795.726562 433.472656 795.691406 433.292969 795.617188 C 433.117188 795.542969 432.960938 795.441406 432.820312 795.304688 C 432.683594 795.171875 432.578125 795.015625 432.503906 794.839844 C 432.425781 794.664062 432.386719 794.480469 432.382812 794.285156 C 431.957031 778.097656 447.914062 774.585938 448.089844 774.5625 C 448.277344 774.523438 448.464844 774.523438 448.652344 774.558594 C 448.839844 774.59375 449.015625 774.664062 449.175781 774.769531 C 449.335938 774.871094 449.46875 775.003906 449.578125 775.160156 C 449.6875 775.316406 449.765625 775.488281 449.808594 775.671875 C 449.84375 775.863281 449.84375 776.054688 449.808594 776.246094 C 449.769531 776.4375 449.699219 776.613281 449.59375 776.777344 C 449.488281 776.9375 449.355469 777.074219 449.195312 777.1875 C 449.035156 777.296875 448.859375 777.375 448.671875 777.417969 C 448.117188 777.417969 434.933594 780.496094 435.289062 794.210938 C 435.296875 794.40625 435.265625 794.59375 435.195312 794.773438 C 435.128906 794.957031 435.027344 795.121094 434.894531 795.261719 C 434.761719 795.402344 434.609375 795.515625 434.429688 795.59375 C 434.253906 795.675781 434.070312 795.71875 433.875 795.726562 Z M 433.847656 795.726562 " fill-opacity="1" fill-rule="nonzero"/><path fill="rgb(9.408569%, 14.509583%, 23.139954%)" d="M 484.804688 751.683594 C 489.046875 758.476562 476.347656 770.21875 474.882812 771.53125 C 474.578125 771.828125 474.21875 771.96875 473.796875 771.960938 C 473.304688 771.964844 472.894531 771.785156 472.558594 771.429688 C 472.40625 771.277344 472.289062 771.097656 472.210938 770.894531 C 472.128906 770.695312 472.085938 770.484375 472.085938 770.269531 C 472.085938 770.050781 472.128906 769.84375 472.210938 769.640625 C 472.289062 769.441406 472.40625 769.261719 472.558594 769.109375 C 476.546875 765.496094 484.097656 756.933594 481.902344 753.425781 C 478.417969 747.84375 461.195312 731.476562 461.019531 731.328125 C 460.863281 731.171875 460.746094 730.996094 460.664062 730.792969 C 460.578125 730.59375 460.535156 730.382812 460.535156 730.164062 C 460.535156 729.945312 460.578125 729.738281 460.664062 729.535156 C 460.746094 729.335938 460.863281 729.15625 461.019531 729.003906 C 461.175781 728.851562 461.351562 728.734375 461.554688 728.652344 C 461.753906 728.570312 461.964844 728.53125 462.179688 728.53125 C 462.398438 728.53125 462.605469 728.570312 462.808594 728.652344 C 463.007812 728.734375 463.1875 728.851562 463.34375 729.003906 C 464.199219 729.609375 481.167969 745.746094 484.804688 751.683594 Z M 465.109375 708.320312 L 465.613281 708.320312 C 465.96875 708.320312 466.289062 708.222656 466.578125 708.015625 C 466.863281 707.8125 467.066406 707.542969 467.179688 707.207031 C 467.332031 706.726562 471.246094 695.667969 488.390625 699.632812 C 488.601562 699.675781 488.816406 699.679688 489.03125 699.644531 C 489.242188 699.605469 489.441406 699.527344 489.625 699.414062 C 489.8125 699.296875 489.964844 699.152344 490.09375 698.976562 C 490.21875 698.800781 490.308594 698.605469 490.359375 698.394531 C 490.410156 698.179688 490.414062 697.96875 490.378906 697.753906 C 490.34375 697.535156 490.265625 697.335938 490.152344 697.152344 C 490.035156 696.96875 489.886719 696.8125 489.710938 696.6875 C 489.53125 696.558594 489.335938 696.472656 489.121094 696.425781 C 468.921875 691.777344 464.097656 705.996094 464.074219 706.148438 C 463.988281 706.359375 463.953125 706.578125 463.960938 706.808594 C 463.96875 707.035156 464.019531 707.253906 464.117188 707.460938 C 464.214844 707.664062 464.351562 707.84375 464.523438 707.992188 C 464.695312 708.140625 464.890625 708.25 465.109375 708.320312 Z M 435.996094 723.296875 C 436.207031 723.34375 436.421875 723.347656 436.636719 723.3125 C 436.851562 723.277344 437.050781 723.199219 437.234375 723.082031 C 437.417969 722.96875 437.574219 722.820312 437.703125 722.644531 C 437.828125 722.464844 437.914062 722.269531 437.964844 722.058594 C 438.011719 721.84375 438.019531 721.632812 437.980469 721.417969 C 437.945312 721.203125 437.867188 721 437.753906 720.816406 C 437.636719 720.632812 437.492188 720.476562 437.3125 720.351562 C 437.136719 720.222656 436.941406 720.136719 436.726562 720.089844 C 416.527344 715.464844 411.703125 729.683594 411.679688 729.835938 C 411.609375 730.039062 411.585938 730.25 411.601562 730.464844 C 411.617188 730.679688 411.671875 730.882812 411.769531 731.074219 C 411.867188 731.265625 412 731.433594 412.160156 731.574219 C 412.324219 731.710938 412.507812 731.816406 412.714844 731.882812 L 413.21875 731.882812 C 413.574219 731.882812 413.894531 731.785156 414.179688 731.578125 C 414.46875 731.375 414.671875 731.105469 414.785156 730.769531 C 414.960938 730.367188 418.851562 719.332031 435.996094 723.296875 Z M 434.304688 738.800781 C 433.988281 738.765625 433.675781 738.761719 433.359375 738.785156 C 433.042969 738.8125 432.734375 738.871094 432.429688 738.957031 C 432.125 739.042969 431.832031 739.160156 431.550781 739.304688 C 431.269531 739.449219 431.003906 739.621094 430.757812 739.816406 C 430.507812 740.011719 430.28125 740.234375 430.078125 740.472656 C 429.871094 740.714844 429.695312 740.972656 429.539062 741.25 C 429.386719 741.527344 429.261719 741.816406 429.164062 742.117188 C 429.066406 742.417969 429 742.726562 428.964844 743.042969 C 428.929688 743.355469 428.921875 743.671875 428.949219 743.988281 C 428.972656 744.300781 429.03125 744.613281 429.117188 744.917969 C 429.203125 745.222656 429.320312 745.515625 429.464844 745.796875 C 429.609375 746.078125 429.777344 746.34375 429.976562 746.589844 C 430.171875 746.839844 430.390625 747.066406 430.632812 747.269531 C 430.875 747.476562 431.132812 747.652344 431.410156 747.808594 C 431.683594 747.960938 431.972656 748.089844 432.273438 748.183594 C 432.578125 748.28125 432.882812 748.347656 433.199219 748.386719 C 433.511719 748.421875 433.828125 748.425781 434.144531 748.402344 C 434.457031 748.375 434.769531 748.320312 435.074219 748.234375 C 435.378906 748.148438 435.671875 748.03125 435.953125 747.886719 C 436.234375 747.746094 436.5 747.574219 436.746094 747.378906 C 436.996094 747.179688 437.222656 746.960938 437.425781 746.722656 C 437.632812 746.480469 437.8125 746.222656 437.964844 745.945312 C 438.121094 745.667969 438.246094 745.378906 438.34375 745.078125 C 438.441406 744.777344 438.507812 744.46875 438.546875 744.15625 C 438.582031 743.839844 438.589844 743.523438 438.5625 743.207031 C 438.539062 742.890625 438.480469 742.582031 438.394531 742.277344 C 438.308594 741.972656 438.191406 741.675781 438.046875 741.394531 C 437.902344 741.113281 437.734375 740.847656 437.535156 740.597656 C 437.339844 740.351562 437.117188 740.121094 436.878906 739.917969 C 436.636719 739.710938 436.375 739.53125 436.097656 739.378906 C 435.820312 739.222656 435.53125 739.097656 435.230469 739 C 434.925781 738.90625 434.617188 738.835938 434.304688 738.800781 Z M 491.015625 724.382812 C 490.703125 724.34375 490.386719 724.339844 490.070312 724.367188 C 489.757812 724.390625 489.445312 724.449219 489.140625 724.535156 C 488.839844 724.625 488.546875 724.738281 488.265625 724.882812 C 487.980469 725.027344 487.71875 725.199219 487.46875 725.394531 C 487.222656 725.59375 486.996094 725.8125 486.789062 726.054688 C 486.585938 726.292969 486.40625 726.554688 486.253906 726.832031 C 486.097656 727.105469 485.972656 727.394531 485.878906 727.699219 C 485.78125 728 485.714844 728.308594 485.675781 728.621094 C 485.640625 728.9375 485.636719 729.25 485.660156 729.566406 C 485.6875 729.882812 485.742188 730.191406 485.832031 730.496094 C 485.917969 730.800781 486.03125 731.09375 486.175781 731.375 C 486.320312 731.65625 486.492188 731.921875 486.6875 732.167969 C 486.886719 732.417969 487.105469 732.644531 487.34375 732.847656 C 487.585938 733.054688 487.84375 733.234375 488.121094 733.386719 C 488.398438 733.542969 488.6875 733.667969 488.988281 733.765625 C 489.289062 733.863281 489.597656 733.929688 489.910156 733.964844 C 490.226562 734 490.542969 734.007812 490.855469 733.980469 C 491.171875 733.957031 491.480469 733.902344 491.785156 733.8125 C 492.089844 733.726562 492.382812 733.613281 492.664062 733.46875 C 492.949219 733.324219 493.210938 733.152344 493.460938 732.957031 C 493.707031 732.761719 493.933594 732.542969 494.140625 732.300781 C 494.347656 732.058594 494.527344 731.800781 494.679688 731.523438 C 494.835938 731.25 494.960938 730.960938 495.058594 730.660156 C 495.15625 730.359375 495.222656 730.050781 495.257812 729.734375 C 495.300781 729.421875 495.308594 729.105469 495.289062 728.789062 C 495.265625 728.46875 495.214844 728.160156 495.132812 727.851562 C 495.050781 727.546875 494.9375 727.25 494.796875 726.964844 C 494.65625 726.679688 494.492188 726.410156 494.296875 726.160156 C 494.105469 725.90625 493.886719 725.675781 493.648438 725.46875 C 493.410156 725.257812 493.152344 725.074219 492.878906 724.914062 C 492.605469 724.753906 492.316406 724.625 492.015625 724.523438 C 491.714844 724.417969 491.40625 724.347656 491.09375 724.304688 Z M 491.015625 724.382812 " fill-opacity="1" fill-rule="nonzero"/><path fill="rgb(9.408569%, 14.509583%, 23.139954%)" d="M 505.003906 768.402344 C 504.730469 768.402344 504.476562 768.332031 504.242188 768.191406 C 504.003906 768.050781 503.824219 767.859375 503.691406 767.617188 C 503.253906 766.789062 502.75 766 502.1875 765.25 C 501.621094 764.5 501.003906 763.800781 500.328125 763.148438 C 499.652344 762.496094 498.933594 761.902344 498.164062 761.367188 C 497.394531 760.828125 496.589844 760.355469 495.746094 759.945312 C 494.902344 759.53125 494.03125 759.191406 493.136719 758.917969 C 492.238281 758.644531 491.324219 758.445312 490.394531 758.316406 C 489.46875 758.1875 488.535156 758.132812 487.597656 758.148438 C 486.660156 758.167969 485.726562 758.257812 484.804688 758.425781 C 484.625 758.4375 484.453125 758.417969 484.28125 758.367188 C 484.109375 758.3125 483.953125 758.234375 483.8125 758.125 C 483.671875 758.015625 483.550781 757.886719 483.457031 757.734375 C 483.363281 757.582031 483.300781 757.417969 483.265625 757.242188 C 483.230469 757.066406 483.230469 756.890625 483.261719 756.714844 C 483.289062 756.539062 483.351562 756.375 483.441406 756.222656 C 483.53125 756.066406 483.648438 755.933594 483.785156 755.820312 C 483.925781 755.710938 484.078125 755.625 484.25 755.570312 C 484.402344 755.570312 499.222656 752.816406 506.242188 766.253906 C 506.335938 766.425781 506.390625 766.605469 506.410156 766.796875 C 506.429688 766.992188 506.414062 767.179688 506.355469 767.367188 C 506.296875 767.550781 506.207031 767.71875 506.082031 767.867188 C 505.957031 768.015625 505.808594 768.136719 505.636719 768.222656 C 505.441406 768.339844 505.234375 768.402344 505.003906 768.402344 Z M 505.003906 768.402344 " fill-opacity="1" fill-rule="nonzero"/><path fill="rgb(68.629456%, 41.569519%, 35.289001%)" d="M 454.933594 863.382812 C 462.636719 888.867188 474.957031 903.132812 474.957031 903.132812 L 497.683594 907.199219 C 497.683594 907.199219 481.144531 944.929688 444.050781 957.710938 C 406.957031 970.488281 362.566406 941.75 362.566406 941.75 C 364.054688 928.96875 344.613281 905.835938 344.613281 905.835938 C 348.957031 896.566406 353.097656 850.730469 352.996094 837.648438 C 400.945312 867.398438 454.933594 863.382812 454.933594 863.382812 Z M 454.933594 863.382812 " fill-opacity="1" fill-rule="nonzero"/><path fill="rgb(91.369629%, 91.758728%, 96.469116%)" d="M 303.910156 900.558594 C 303.910156 900.558594 323.503906 922.757812 331.683594 928.996094 C 373.652344 960.714844 370.972656 1008.824219 350.722656 1040.117188 L 182.78125 1263.570312 L 182.554688 1263.898438 C 159.675781 1302.917969 128.238281 1305.34375 115.816406 1304.507812 C 95.058594 1303.246094 104.605469 1294.253906 95.613281 1276.070312 C 85.109375 1248.949219 62.285156 1254.78125 74.253906 1226.75 L 63.898438 1233.515625 C 71.121094 1194.070312 122.988281 1058.222656 203.765625 946.523438 C 227.726562 913.058594 303.910156 900.558594 303.910156 900.558594 Z M 303.910156 900.558594 " fill-opacity="1" fill-rule="nonzero"/><path fill="rgb(91.369629%, 91.758728%, 96.469116%)" d="M 941.84375 1353.703125 C 941.84375 1353.703125 780.792969 1345.824219 671.382812 1307.414062 C 671.382812 1307.414062 645.300781 1299.054688 633.507812 1274.582031 C 630.539062 1270.824219 627.855469 1266.875 625.453125 1262.738281 L 625.226562 1262.410156 L 457.027344 1038.878906 C 436.828125 1007.589844 434.101562 959.476562 476.066406 927.757812 C 484.324219 921.519531 503.84375 899.347656 503.84375 899.347656 C 503.84375 899.347656 580.027344 911.773438 603.988281 945.285156 C 668.378906 1034.332031 714.359375 1138.636719 734.03125 1197.300781 C 840.285156 1225.082031 957.144531 1262.230469 957.144531 1262.230469 C 958.511719 1292.539062 952.675781 1323.070312 941.84375 1353.703125 Z M 941.84375 1353.703125 " fill-opacity="1" fill-rule="nonzero"/><path fill="rgb(70.588684%, 56.858826%, 79.219055%)" d="M 455.539062 897.90625 L 489.855469 902.25 C 488.566406 1271.449219 448.34375 1405.199219 328.046875 899.496094 L 351.835938 897.882812 C 392.96875 913.058594 428.699219 915.738281 455.539062 897.90625 Z M 455.539062 897.90625 " fill-opacity="1" fill-rule="nonzero"/><path fill="rgb(91.369629%, 91.758728%, 96.469116%)" d="M 200.707031 1726.617188 C 200.707031 1726.617188 196.492188 1514.273438 228.660156 1312.714844 C 230.480469 1166.542969 208.789062 1072.796875 215.175781 991.121094 C 219.746094 932.457031 243.558594 926.699219 243.710938 924.902344 C 279.414062 895.152344 346.65625 897.125 346.65625 897.125 C 387.285156 967.835938 419.078125 1127.296875 442.460938 1207.253906 C 457.9375 1127.144531 466.171875 966.472656 460.136719 896.796875 C 460.136719 896.796875 588.558594 889.066406 604.066406 979.402344 C 602.296875 1060.902344 635.148438 1500.710938 614.417969 1726.742188 Z M 200.707031 1726.617188 " fill-opacity="1" fill-rule="nonzero"/><path fill="rgb(91.369629%, 91.758728%, 96.469116%)" d="M 351.886719 896.667969 L 365.496094 936.597656 L 321.960938 897.90625 C 327.46875 885.910156 337.113281 875.605469 351.886719 867.375 Z M 455.414062 896.667969 C 458.847656 909.296875 460.765625 925.761719 462.003906 943.945312 L 485.4375 897.90625 C 479.933594 885.910156 470.285156 875.605469 455.515625 867.375 Z M 455.414062 896.667969 " fill-opacity="1" fill-rule="nonzero"/><path fill="rgb(9.408569%, 14.509583%, 23.139954%)" d="M 502.128906 924.804688 L 479.199219 940.132812 L 500.914062 955.285156 C 501.171875 955.464844 501.359375 955.699219 501.484375 955.984375 C 501.605469 956.269531 501.644531 956.566406 501.597656 956.875 L 459.148438 1235.359375 C 459.097656 1235.734375 458.933594 1236.050781 458.660156 1236.3125 C 458.386719 1236.570312 458.0625 1236.71875 457.6875 1236.75 L 457.535156 1236.75 C 457.1875 1236.75 456.875 1236.648438 456.59375 1236.449219 C 456.308594 1236.25 456.109375 1235.988281 455.992188 1235.664062 C 437.28125 1183.992188 319.234375 975.007812 318.046875 973.015625 C 317.953125 972.84375 317.890625 972.660156 317.859375 972.464844 C 317.832031 972.269531 317.835938 972.074219 317.878906 971.878906 C 317.921875 971.6875 317.996094 971.507812 318.101562 971.34375 C 318.210938 971.175781 318.34375 971.035156 318.503906 970.917969 L 345.167969 950.714844 L 300.523438 930.511719 C 300.074219 930.292969 299.773438 929.949219 299.617188 929.476562 C 299.484375 929 299.550781 928.554688 299.816406 928.136719 L 319.613281 896.46875 C 319.734375 896.292969 319.882812 896.148438 320.058594 896.035156 C 320.234375 895.917969 320.425781 895.839844 320.632812 895.796875 C 320.839844 895.753906 321.046875 895.753906 321.253906 895.789062 C 321.460938 895.828125 321.65625 895.902344 321.832031 896.015625 C 322.011719 896.125 322.164062 896.269531 322.289062 896.4375 C 322.410156 896.609375 322.5 896.796875 322.550781 897 C 322.605469 897.203125 322.617188 897.410156 322.589844 897.621094 C 322.5625 897.828125 322.496094 898.027344 322.390625 898.210938 L 303.582031 928.210938 L 349.03125 948.796875 C 349.300781 948.910156 349.519531 949.085938 349.691406 949.320312 C 349.863281 949.554688 349.964844 949.816406 349.992188 950.109375 C 350.027344 950.394531 349.988281 950.671875 349.875 950.9375 C 349.761719 951.203125 349.589844 951.425781 349.359375 951.597656 L 321.582031 972.558594 C 331.128906 989.507812 433.394531 1171.265625 456.777344 1228.769531 L 498.1875 957.40625 L 475.460938 941.445312 C 475.351562 941.371094 475.25 941.285156 475.160156 941.1875 C 475.066406 941.089844 474.992188 940.980469 474.925781 940.863281 C 474.863281 940.746094 474.816406 940.621094 474.78125 940.492188 C 474.75 940.359375 474.734375 940.230469 474.734375 940.09375 C 474.734375 939.960938 474.75 939.828125 474.78125 939.699219 C 474.816406 939.570312 474.863281 939.445312 474.925781 939.328125 C 474.992188 939.210938 475.066406 939.101562 475.160156 939.003906 C 475.25 938.902344 475.351562 938.816406 475.460938 938.742188 L 499.121094 922.933594 L 485.058594 898.082031 C 484.949219 897.894531 484.878906 897.695312 484.851562 897.480469 C 484.824219 897.265625 484.839844 897.054688 484.894531 896.84375 C 484.953125 896.636719 485.046875 896.445312 485.179688 896.277344 C 485.3125 896.105469 485.476562 895.96875 485.664062 895.859375 C 485.851562 895.75 486.054688 895.683594 486.273438 895.65625 C 486.488281 895.625 486.703125 895.640625 486.914062 895.695312 C 487.125 895.753906 487.316406 895.847656 487.488281 895.984375 C 487.660156 896.117188 487.800781 896.277344 487.910156 896.46875 L 502.734375 922.632812 C 502.832031 922.816406 502.894531 923.011719 502.921875 923.222656 C 502.945312 923.429688 502.929688 923.636719 502.871094 923.839844 C 502.816406 924.042969 502.722656 924.226562 502.59375 924.394531 C 502.464844 924.5625 502.308594 924.699219 502.128906 924.804688 Z M 502.128906 924.804688 " fill-opacity="1" fill-rule="nonzero"/><path fill="rgb(9.408569%, 14.509583%, 23.139954%)" d="M 467.253906 1382.367188 C 467.253906 1382.6875 467.222656 1383.007812 467.164062 1383.320312 C 467.101562 1383.632812 467.007812 1383.9375 466.882812 1384.234375 C 466.761719 1384.53125 466.613281 1384.8125 466.433594 1385.078125 C 466.257812 1385.34375 466.054688 1385.589844 465.828125 1385.816406 C 465.601562 1386.042969 465.355469 1386.242188 465.089844 1386.421875 C 464.824219 1386.601562 464.542969 1386.75 464.246094 1386.871094 C 463.953125 1386.996094 463.648438 1387.085938 463.332031 1387.148438 C 463.019531 1387.210938 462.703125 1387.242188 462.382812 1387.242188 C 462.0625 1387.242188 461.746094 1387.210938 461.429688 1387.148438 C 461.117188 1387.085938 460.8125 1386.996094 460.515625 1386.871094 C 460.222656 1386.75 459.941406 1386.601562 459.675781 1386.421875 C 459.410156 1386.242188 459.164062 1386.042969 458.9375 1385.816406 C 458.710938 1385.589844 458.507812 1385.34375 458.332031 1385.078125 C 458.152344 1384.8125 458.003906 1384.53125 457.878906 1384.234375 C 457.757812 1383.9375 457.664062 1383.632812 457.601562 1383.320312 C 457.539062 1383.007812 457.507812 1382.6875 457.507812 1382.367188 C 457.507812 1382.050781 457.539062 1381.730469 457.601562 1381.417969 C 457.664062 1381.105469 457.757812 1380.800781 457.878906 1380.503906 C 458.003906 1380.207031 458.152344 1379.925781 458.332031 1379.660156 C 458.507812 1379.394531 458.710938 1379.148438 458.9375 1378.921875 C 459.164062 1378.695312 459.410156 1378.492188 459.675781 1378.316406 C 459.941406 1378.136719 460.222656 1377.988281 460.515625 1377.867188 C 460.8125 1377.742188 461.117188 1377.652344 461.429688 1377.589844 C 461.746094 1377.527344 462.0625 1377.496094 462.382812 1377.496094 C 462.703125 1377.496094 463.019531 1377.527344 463.332031 1377.59375 C 463.644531 1377.65625 463.949219 1377.75 464.242188 1377.871094 C 464.539062 1377.996094 464.820312 1378.144531 465.082031 1378.324219 C 465.347656 1378.5 465.59375 1378.703125 465.820312 1378.929688 C 466.046875 1379.15625 466.25 1379.402344 466.425781 1379.667969 C 466.605469 1379.933594 466.753906 1380.210938 466.878906 1380.507812 C 467 1380.800781 467.09375 1381.105469 467.15625 1381.417969 C 467.222656 1381.734375 467.253906 1382.050781 467.253906 1382.367188 Z M 462.433594 1461.089844 C 462.113281 1461.089844 461.796875 1461.121094 461.480469 1461.183594 C 461.167969 1461.246094 460.863281 1461.335938 460.566406 1461.460938 C 460.273438 1461.582031 459.992188 1461.730469 459.726562 1461.910156 C 459.460938 1462.085938 459.214844 1462.289062 458.988281 1462.515625 C 458.761719 1462.742188 458.558594 1462.988281 458.378906 1463.253906 C 458.203125 1463.519531 458.054688 1463.800781 457.929688 1464.097656 C 457.808594 1464.394531 457.714844 1464.699219 457.652344 1465.011719 C 457.589844 1465.324219 457.558594 1465.640625 457.558594 1465.960938 C 457.558594 1466.28125 457.589844 1466.597656 457.652344 1466.914062 C 457.714844 1467.226562 457.808594 1467.53125 457.929688 1467.828125 C 458.054688 1468.121094 458.203125 1468.402344 458.378906 1468.671875 C 458.558594 1468.9375 458.761719 1469.183594 458.988281 1469.410156 C 459.214844 1469.636719 459.460938 1469.835938 459.726562 1470.015625 C 459.992188 1470.191406 460.273438 1470.34375 460.566406 1470.464844 C 460.863281 1470.585938 461.167969 1470.679688 461.480469 1470.742188 C 461.796875 1470.804688 462.113281 1470.835938 462.433594 1470.835938 C 462.753906 1470.835938 463.070312 1470.804688 463.382812 1470.742188 C 463.699219 1470.679688 464.003906 1470.585938 464.296875 1470.464844 C 464.59375 1470.34375 464.875 1470.191406 465.140625 1470.015625 C 465.40625 1469.835938 465.652344 1469.636719 465.878906 1469.410156 C 466.105469 1469.183594 466.308594 1468.9375 466.484375 1468.671875 C 466.664062 1468.402344 466.8125 1468.121094 466.933594 1467.828125 C 467.058594 1467.53125 467.148438 1467.226562 467.210938 1466.914062 C 467.273438 1466.597656 467.304688 1466.28125 467.304688 1465.960938 C 467.304688 1465.640625 467.273438 1465.324219 467.210938 1465.011719 C 467.148438 1464.699219 467.058594 1464.390625 466.933594 1464.097656 C 466.8125 1463.800781 466.664062 1463.519531 466.484375 1463.253906 C 466.308594 1462.988281 466.105469 1462.742188 465.878906 1462.515625 C 465.652344 1462.289062 465.40625 1462.085938 465.140625 1461.910156 C 464.875 1461.730469 464.59375 1461.582031 464.296875 1461.460938 C 464.003906 1461.335938 463.699219 1461.246094 463.382812 1461.183594 C 463.070312 1461.121094 462.753906 1461.089844 462.433594 1461.089844 Z M 461.347656 1557.511719 C 461.027344 1557.511719 460.710938 1557.542969 460.394531 1557.605469 C 460.082031 1557.667969 459.777344 1557.757812 459.480469 1557.882812 C 459.1875 1558.003906 458.90625 1558.15625 458.640625 1558.332031 C 458.375 1558.511719 458.128906 1558.710938 457.902344 1558.9375 C 457.675781 1559.164062 457.472656 1559.410156 457.292969 1559.675781 C 457.117188 1559.941406 456.96875 1560.222656 456.84375 1560.519531 C 456.722656 1560.816406 456.628906 1561.121094 456.566406 1561.433594 C 456.503906 1561.746094 456.472656 1562.066406 456.472656 1562.386719 C 456.472656 1562.703125 456.503906 1563.023438 456.566406 1563.335938 C 456.628906 1563.648438 456.722656 1563.953125 456.84375 1564.25 C 456.96875 1564.546875 457.117188 1564.828125 457.292969 1565.09375 C 457.472656 1565.359375 457.675781 1565.605469 457.902344 1565.832031 C 458.128906 1566.058594 458.375 1566.257812 458.640625 1566.4375 C 458.90625 1566.617188 459.1875 1566.765625 459.480469 1566.886719 C 459.777344 1567.011719 460.082031 1567.101562 460.394531 1567.164062 C 460.710938 1567.226562 461.027344 1567.257812 461.347656 1567.257812 C 461.667969 1567.257812 461.984375 1567.226562 462.296875 1567.164062 C 462.613281 1567.101562 462.917969 1567.011719 463.210938 1566.886719 C 463.507812 1566.765625 463.789062 1566.613281 464.054688 1566.4375 C 464.320312 1566.257812 464.566406 1566.058594 464.792969 1565.832031 C 465.019531 1565.605469 465.222656 1565.359375 465.398438 1565.09375 C 465.578125 1564.828125 465.726562 1564.546875 465.847656 1564.25 C 465.972656 1563.953125 466.0625 1563.648438 466.125 1563.335938 C 466.1875 1563.023438 466.21875 1562.703125 466.21875 1562.386719 C 466.214844 1562.066406 466.179688 1561.753906 466.113281 1561.445312 C 466.046875 1561.136719 465.953125 1560.835938 465.828125 1560.542969 C 465.703125 1560.25 465.550781 1559.976562 465.375 1559.714844 C 465.195312 1559.453125 464.992188 1559.210938 464.765625 1558.988281 C 464.539062 1558.765625 464.296875 1558.566406 464.03125 1558.390625 C 463.765625 1558.21875 463.488281 1558.070312 463.195312 1557.949219 C 462.902344 1557.832031 462.597656 1557.738281 462.289062 1557.679688 C 461.976562 1557.617188 461.664062 1557.585938 461.347656 1557.585938 Z M 461.347656 1557.511719 " fill-opacity="1" fill-rule="nonzero"/><path fill="rgb(9.408569%, 14.509583%, 23.139954%)" d="M 250.90625 1192.050781 C 250.523438 1192.050781 250.179688 1191.929688 249.882812 1191.6875 C 249.582031 1191.445312 249.394531 1191.136719 249.316406 1190.761719 L 229.117188 1097.320312 C 229.070312 1097.105469 229.0625 1096.890625 229.101562 1096.675781 C 229.140625 1096.464844 229.21875 1096.265625 229.335938 1096.082031 C 229.453125 1095.894531 229.601562 1095.742188 229.777344 1095.617188 C 229.957031 1095.492188 230.152344 1095.40625 230.363281 1095.359375 C 230.578125 1095.3125 230.792969 1095.308594 231.007812 1095.347656 C 231.21875 1095.386719 231.417969 1095.460938 231.601562 1095.578125 C 231.785156 1095.699219 231.941406 1095.84375 232.066406 1096.023438 C 232.191406 1096.203125 232.277344 1096.398438 232.324219 1096.613281 L 252.648438 1190.054688 C 252.691406 1190.269531 252.691406 1190.480469 252.652344 1190.695312 C 252.609375 1190.910156 252.53125 1191.109375 252.414062 1191.292969 C 252.296875 1191.476562 252.148438 1191.632812 251.972656 1191.757812 C 251.792969 1191.882812 251.597656 1191.972656 251.386719 1192.023438 Z M 250.90625 1192.050781 " fill-opacity="1" fill-rule="nonzero"/><path fill="rgb(9.408569%, 14.509583%, 23.139954%)" d="M 664.085938 1364.539062 L 445.414062 1364.539062 C 444.679688 1364.535156 443.949219 1364.5 443.222656 1364.425781 C 442.492188 1364.351562 441.769531 1364.242188 441.050781 1364.097656 C 440.332031 1363.953125 439.625 1363.773438 438.921875 1363.558594 C 438.222656 1363.34375 437.535156 1363.09375 436.859375 1362.8125 C 436.183594 1362.53125 435.519531 1362.21875 434.875 1361.871094 C 434.230469 1361.523438 433.601562 1361.148438 432.996094 1360.738281 C 432.386719 1360.332031 431.796875 1359.894531 431.234375 1359.429688 C 430.667969 1358.964844 430.125 1358.472656 429.609375 1357.953125 C 429.089844 1357.4375 428.597656 1356.894531 428.132812 1356.328125 C 427.667969 1355.761719 427.234375 1355.171875 426.828125 1354.5625 C 426.417969 1353.953125 426.042969 1353.328125 425.699219 1352.679688 C 425.351562 1352.035156 425.039062 1351.375 424.757812 1350.695312 C 424.476562 1350.019531 424.230469 1349.332031 424.015625 1348.628906 C 423.800781 1347.929688 423.625 1347.21875 423.480469 1346.5 C 423.335938 1345.785156 423.226562 1345.058594 423.152344 1344.332031 C 423.082031 1343.601562 423.042969 1342.871094 423.042969 1342.136719 L 468.0625 1026.453125 C 468.214844 1025.476562 468.410156 1024.507812 468.648438 1023.550781 C 468.890625 1022.589844 469.171875 1021.644531 469.496094 1020.710938 C 469.820312 1019.777344 470.183594 1018.859375 470.59375 1017.960938 C 471 1017.058594 471.445312 1016.179688 471.933594 1015.320312 C 472.421875 1014.460938 472.945312 1013.625 473.507812 1012.8125 C 474.070312 1011.996094 474.667969 1011.210938 475.300781 1010.453125 C 475.933594 1009.695312 476.601562 1008.964844 477.300781 1008.269531 C 477.996094 1007.570312 478.726562 1006.902344 479.484375 1006.269531 C 480.246094 1005.636719 481.03125 1005.039062 481.84375 1004.480469 C 482.65625 1003.917969 483.492188 1003.394531 484.355469 1002.90625 C 485.214844 1002.421875 486.09375 1001.976562 486.996094 1001.566406 C 487.898438 1001.160156 488.8125 1000.796875 489.746094 1000.472656 C 490.679688 1000.148438 491.628906 999.867188 492.585938 999.628906 C 493.546875 999.390625 494.511719 999.195312 495.488281 999.046875 C 496.464844 998.894531 497.449219 998.789062 498.433594 998.726562 C 499.421875 998.664062 500.40625 998.644531 501.394531 998.671875 L 709.789062 998.671875 C 710.523438 998.675781 711.253906 998.710938 711.980469 998.785156 C 712.710938 998.859375 713.433594 998.96875 714.152344 999.113281 C 714.871094 999.253906 715.582031 999.433594 716.28125 999.648438 C 716.980469 999.863281 717.671875 1000.109375 718.347656 1000.390625 C 719.023438 1000.671875 719.683594 1000.984375 720.332031 1001.328125 C 720.976562 1001.675781 721.605469 1002.050781 722.214844 1002.457031 C 722.820312 1002.867188 723.410156 1003.300781 723.976562 1003.765625 C 724.542969 1004.230469 725.085938 1004.722656 725.601562 1005.242188 C 726.121094 1005.757812 726.613281 1006.300781 727.078125 1006.867188 C 727.542969 1007.433594 727.980469 1008.019531 728.386719 1008.628906 C 728.796875 1009.238281 729.171875 1009.863281 729.519531 1010.507812 C 729.867188 1011.15625 730.179688 1011.816406 730.460938 1012.492188 C 730.742188 1013.167969 730.992188 1013.855469 731.207031 1014.558594 C 731.417969 1015.257812 731.597656 1015.96875 731.742188 1016.6875 C 731.890625 1017.402344 732 1018.128906 732.070312 1018.855469 C 732.144531 1019.585938 732.183594 1020.316406 732.1875 1021.050781 L 686.457031 1342.136719 C 686.457031 1342.871094 686.417969 1343.601562 686.34375 1344.332031 C 686.273438 1345.058594 686.164062 1345.785156 686.019531 1346.5 C 685.875 1347.21875 685.695312 1347.929688 685.484375 1348.628906 C 685.269531 1349.332031 685.023438 1350.019531 684.742188 1350.695312 C 684.460938 1351.375 684.148438 1352.035156 683.800781 1352.679688 C 683.457031 1353.328125 683.078125 1353.953125 682.671875 1354.5625 C 682.265625 1355.171875 681.832031 1355.761719 681.367188 1356.328125 C 680.902344 1356.894531 680.410156 1357.4375 679.890625 1357.953125 C 679.375 1358.472656 678.832031 1358.964844 678.265625 1359.429688 C 677.699219 1359.894531 677.113281 1360.332031 676.503906 1360.738281 C 675.894531 1361.148438 675.269531 1361.523438 674.625 1361.871094 C 673.976562 1362.21875 673.316406 1362.53125 672.640625 1362.8125 C 671.964844 1363.09375 671.277344 1363.34375 670.574219 1363.558594 C 669.875 1363.773438 669.167969 1363.953125 668.449219 1364.097656 C 667.730469 1364.242188 667.007812 1364.351562 666.277344 1364.425781 C 665.550781 1364.5 664.816406 1364.535156 664.085938 1364.539062 Z M 664.085938 1364.539062 " fill-opacity="1" fill-rule="nonzero"/><path fill="rgb(70.588684%, 56.858826%, 79.219055%)" d="M 651.761719 1022.714844 L 562.527344 1022.714844 C 561.84375 1022.714844 561.171875 1022.640625 560.503906 1022.492188 C 559.839844 1022.34375 559.195312 1022.128906 558.578125 1021.84375 C 557.957031 1021.5625 557.375 1021.214844 556.828125 1020.804688 C 556.285156 1020.394531 555.789062 1019.933594 555.339844 1019.417969 C 554.894531 1018.902344 554.507812 1018.34375 554.183594 1017.746094 C 553.855469 1017.148438 553.59375 1016.519531 553.402344 1015.867188 C 553.210938 1015.210938 553.089844 1014.542969 553.039062 1013.863281 C 552.988281 1013.183594 553.011719 1012.507812 553.109375 1011.832031 L 556.039062 991.628906 C 556.117188 991.066406 556.246094 990.515625 556.425781 989.980469 C 556.601562 989.441406 556.828125 988.921875 557.097656 988.425781 C 557.371094 987.925781 557.683594 987.457031 558.039062 987.015625 C 558.394531 986.574219 558.785156 986.167969 559.210938 985.796875 C 559.640625 985.425781 560.097656 985.09375 560.585938 984.804688 C 561.070312 984.515625 561.582031 984.269531 562.113281 984.070312 C 562.640625 983.871094 563.1875 983.722656 563.746094 983.621094 C 564.300781 983.519531 564.863281 983.46875 565.429688 983.46875 L 654.691406 983.46875 C 655.375 983.472656 656.046875 983.546875 656.710938 983.691406 C 657.378906 983.839844 658.019531 984.054688 658.640625 984.339844 C 659.257812 984.625 659.839844 984.972656 660.386719 985.382812 C 660.929688 985.792969 661.425781 986.253906 661.871094 986.769531 C 662.316406 987.285156 662.703125 987.84375 663.027344 988.441406 C 663.351562 989.039062 663.609375 989.667969 663.800781 990.320312 C 663.992188 990.976562 664.113281 991.644531 664.160156 992.324219 C 664.207031 993.003906 664.183594 993.679688 664.085938 994.355469 L 661.183594 1014.558594 C 661.101562 1015.121094 660.972656 1015.671875 660.792969 1016.210938 C 660.613281 1016.75 660.390625 1017.269531 660.117188 1017.765625 C 659.847656 1018.265625 659.53125 1018.734375 659.175781 1019.175781 C 658.820312 1019.621094 658.425781 1020.027344 657.996094 1020.398438 C 657.566406 1020.769531 657.109375 1021.101562 656.621094 1021.390625 C 656.132812 1021.679688 655.621094 1021.921875 655.089844 1022.121094 C 654.558594 1022.320312 654.011719 1022.46875 653.453125 1022.566406 C 652.894531 1022.667969 652.332031 1022.71875 651.761719 1022.714844 Z M 651.761719 1022.714844 " fill-opacity="1" fill-rule="nonzero"/><path fill="rgb(70.588684%, 56.858826%, 79.219055%)" d="M 453.542969 1355.144531 C 452.050781 1355.222656 450.570312 1355.09375 449.113281 1354.753906 C 447.652344 1354.417969 446.269531 1353.886719 444.957031 1353.164062 C 443.648438 1352.4375 442.464844 1351.546875 441.402344 1350.488281 C 440.34375 1349.429688 439.449219 1348.246094 438.722656 1346.9375 C 437.660156 1345.015625 436.941406 1342.972656 436.5625 1340.808594 C 436.1875 1338.644531 436.175781 1336.476562 436.527344 1334.308594 L 436.675781 1333.25 C 448.496094 1247.761719 476.21875 1046.984375 478.492188 1028.878906 C 481.371094 1005.871094 509.804688 1008.445312 510.082031 1008.472656 C 510.296875 1008.492188 510.503906 1008.550781 510.695312 1008.652344 C 510.886719 1008.753906 511.054688 1008.890625 511.191406 1009.058594 C 511.328125 1009.230469 511.429688 1009.417969 511.492188 1009.625 C 511.550781 1009.835938 511.570312 1010.046875 511.546875 1010.265625 C 511.527344 1010.480469 511.464844 1010.6875 511.363281 1010.878906 C 511.261719 1011.074219 511.125 1011.238281 510.957031 1011.375 C 510.789062 1011.515625 510.601562 1011.613281 510.390625 1011.675781 C 510.183594 1011.734375 509.96875 1011.753906 509.753906 1011.730469 C 508.71875 1011.730469 484.222656 1009.457031 481.75 1029.410156 C 479.476562 1047.542969 451.726562 1248.34375 439.910156 1333.828125 L 439.757812 1334.890625 C 439.46875 1336.6875 439.480469 1338.488281 439.792969 1340.28125 C 440.105469 1342.078125 440.699219 1343.773438 441.574219 1345.371094 C 442.21875 1346.507812 443.019531 1347.527344 443.96875 1348.429688 C 444.917969 1349.328125 445.980469 1350.066406 447.152344 1350.648438 C 448.324219 1351.230469 449.558594 1351.625 450.847656 1351.835938 C 452.140625 1352.046875 453.433594 1352.0625 454.730469 1351.886719 C 454.949219 1351.871094 455.160156 1351.902344 455.363281 1351.972656 C 455.570312 1352.042969 455.75 1352.152344 455.914062 1352.296875 C 456.074219 1352.441406 456.203125 1352.613281 456.292969 1352.808594 C 456.386719 1353.003906 456.4375 1353.210938 456.449219 1353.425781 C 456.460938 1353.644531 456.433594 1353.855469 456.363281 1354.0625 C 456.292969 1354.269531 456.183594 1354.453125 456.039062 1354.617188 C 455.894531 1354.78125 455.726562 1354.910156 455.527344 1355.007812 C 455.332031 1355.101562 455.125 1355.15625 454.90625 1355.167969 Z M 453.542969 1355.144531 " fill-opacity="1" fill-rule="nonzero"/><path fill="rgb(81.17981%, 52.159119%, 41.569519%)" d="M 392.210938 1261.851562 C 392.210938 1261.851562 402.3125 1274.101562 424.757812 1271.449219 C 462.105469 1266.398438 489.121094 1256.75 517.78125 1245.890625 C 534.675781 1239.90625 530.40625 1226.09375 525.078125 1226.949219 C 522.554688 1227.582031 534.371094 1223.84375 536.769531 1223.011719 C 557.679688 1214.804688 547.703125 1200.28125 538.765625 1201.167969 C 555.910156 1197.605469 553.183594 1178.6875 541.972656 1180.128906 C 553.941406 1176.238281 550.734375 1159.015625 532.226562 1161.566406 C 521.875 1162.097656 438.117188 1180.433594 438.117188 1180.433594 L 446.449219 1177.90625 L 450.386719 1150.304688 C 438.445312 1154.785156 427.0625 1160.402344 416.234375 1167.152344 C 405.410156 1173.902344 395.355469 1181.65625 386.074219 1190.40625 C 382.730469 1193.628906 380.207031 1197.402344 378.5 1201.722656 Z M 392.210938 1261.851562 " fill-opacity="1" fill-rule="nonzero"/><path fill="rgb(91.369629%, 91.758728%, 96.469116%)" d="M 398.371094 1273.042969 C 398.371094 1273.042969 242.675781 1315.015625 126.773438 1312.085938 C 126.773438 1312.085938 67.511719 1312.238281 63.320312 1249.503906 C 59.128906 1186.769531 124.351562 1189.777344 124.351562 1189.777344 C 239.949219 1181.796875 385.015625 1181.289062 385.015625 1181.289062 C 395.542969 1209.703125 399.355469 1240.539062 398.371094 1273.042969 Z M 398.371094 1273.042969 " fill-opacity="1" fill-rule="nonzero"/><path fill="rgb(9.408569%, 14.509583%, 23.139954%)" d="M 459.554688 1195.257812 C 459.375 1195.25 459.199219 1195.214844 459.03125 1195.144531 C 458.867188 1195.074219 458.71875 1194.976562 458.585938 1194.855469 C 458.453125 1194.730469 458.351562 1194.585938 458.273438 1194.421875 C 458.195312 1194.257812 458.148438 1194.085938 458.136719 1193.90625 C 458.121094 1193.726562 458.140625 1193.550781 458.191406 1193.375 C 458.242188 1193.203125 458.324219 1193.042969 458.433594 1192.902344 C 458.542969 1192.757812 458.675781 1192.636719 458.828125 1192.542969 C 458.984375 1192.449219 459.148438 1192.386719 459.328125 1192.351562 L 541.71875 1178.6875 C 541.917969 1178.636719 542.121094 1178.628906 542.320312 1178.664062 C 542.523438 1178.695312 542.710938 1178.769531 542.882812 1178.878906 C 543.054688 1178.992188 543.199219 1179.132812 543.308594 1179.304688 C 543.421875 1179.476562 543.496094 1179.664062 543.527344 1179.867188 C 543.5625 1180.070312 543.554688 1180.269531 543.503906 1180.46875 C 543.453125 1180.667969 543.363281 1180.847656 543.238281 1181.011719 C 543.113281 1181.171875 542.957031 1181.300781 542.777344 1181.398438 C 542.597656 1181.496094 542.40625 1181.550781 542.199219 1181.570312 L 459.808594 1195.230469 Z M 459.554688 1195.257812 " fill-opacity="1" fill-rule="nonzero"/><path fill="rgb(9.408569%, 14.509583%, 23.139954%)" d="M 472.433594 1212.203125 C 472.070312 1212.199219 471.75 1212.078125 471.476562 1211.839844 C 471.203125 1211.597656 471.042969 1211.300781 470.992188 1210.941406 C 470.964844 1210.75 470.972656 1210.558594 471.019531 1210.371094 C 471.070312 1210.183594 471.152344 1210.011719 471.265625 1209.859375 C 471.382812 1209.703125 471.523438 1209.578125 471.691406 1209.480469 C 471.859375 1209.382812 472.039062 1209.324219 472.230469 1209.296875 L 538.539062 1199.726562 C 538.730469 1199.699219 538.921875 1199.710938 539.109375 1199.757812 C 539.296875 1199.804688 539.46875 1199.886719 539.625 1200.003906 C 539.78125 1200.117188 539.90625 1200.261719 540.007812 1200.425781 C 540.105469 1200.59375 540.171875 1200.773438 540.199219 1200.964844 C 540.226562 1201.15625 540.21875 1201.347656 540.171875 1201.535156 C 540.125 1201.722656 540.042969 1201.894531 539.925781 1202.050781 C 539.8125 1202.207031 539.671875 1202.335938 539.503906 1202.4375 C 539.339844 1202.535156 539.160156 1202.601562 538.96875 1202.628906 L 472.632812 1212.175781 Z M 472.433594 1212.203125 " fill-opacity="1" fill-rule="nonzero"/><path fill="rgb(9.408569%, 14.509583%, 23.139954%)" d="M 481.925781 1235.234375 C 481.746094 1235.230469 481.570312 1235.191406 481.40625 1235.125 C 481.238281 1235.054688 481.089844 1234.957031 480.957031 1234.832031 C 480.828125 1234.707031 480.722656 1234.5625 480.644531 1234.398438 C 480.566406 1234.238281 480.519531 1234.066406 480.507812 1233.886719 C 480.492188 1233.703125 480.511719 1233.527344 480.5625 1233.355469 C 480.613281 1233.179688 480.695312 1233.023438 480.804688 1232.878906 C 480.914062 1232.734375 481.046875 1232.617188 481.203125 1232.523438 C 481.355469 1232.425781 481.519531 1232.363281 481.699219 1232.332031 L 524.851562 1225.511719 C 525.042969 1225.480469 525.230469 1225.484375 525.417969 1225.53125 C 525.605469 1225.574219 525.777344 1225.652344 525.933594 1225.769531 C 526.085938 1225.882812 526.214844 1226.023438 526.3125 1226.1875 C 526.40625 1226.355469 526.46875 1226.53125 526.492188 1226.722656 C 526.523438 1226.914062 526.515625 1227.101562 526.472656 1227.285156 C 526.429688 1227.472656 526.351562 1227.644531 526.238281 1227.800781 C 526.128906 1227.953125 525.992188 1228.082031 525.832031 1228.1875 C 525.671875 1228.289062 525.496094 1228.355469 525.308594 1228.390625 L 482.28125 1235.210938 Z M 481.925781 1235.234375 " fill-opacity="1" fill-rule="nonzero"/><path fill="rgb(9.408569%, 14.509583%, 23.139954%)" d="M 1008.050781 1268.546875 C 1008.050781 1269.355469 1008.9375 1288.394531 987.851562 1299.355469 C 987.65625 1299.453125 987.449219 1299.511719 987.234375 1299.53125 C 987.015625 1299.546875 986.804688 1299.523438 986.597656 1299.457031 C 986.386719 1299.390625 986.199219 1299.289062 986.035156 1299.148438 C 985.867188 1299.007812 985.730469 1298.84375 985.628906 1298.648438 C 985.527344 1298.457031 985.46875 1298.25 985.449219 1298.03125 C 985.429688 1297.8125 985.453125 1297.597656 985.519531 1297.390625 C 985.585938 1297.183594 985.691406 1296.996094 985.832031 1296.828125 C 985.972656 1296.660156 986.140625 1296.527344 986.335938 1296.425781 C 1005.449219 1286.503906 1004.792969 1269.429688 1004.742188 1268.648438 C 1004.734375 1268.429688 1004.765625 1268.214844 1004.839844 1268.007812 C 1004.914062 1267.800781 1005.023438 1267.617188 1005.167969 1267.453125 C 1005.316406 1267.289062 1005.488281 1267.160156 1005.683594 1267.066406 C 1005.882812 1266.972656 1006.089844 1266.917969 1006.308594 1266.902344 C 1006.535156 1266.890625 1006.753906 1266.921875 1006.96875 1267 C 1007.183594 1267.074219 1007.371094 1267.191406 1007.535156 1267.347656 C 1007.699219 1267.503906 1007.828125 1267.683594 1007.917969 1267.894531 C 1008.007812 1268.101562 1008.050781 1268.320312 1008.050781 1268.546875 Z M 1102.011719 1267.5625 L 1047.0625 1276.171875 L 1050.828125 1267.433594 C 1050.914062 1267.234375 1050.960938 1267.027344 1050.964844 1266.808594 C 1050.96875 1266.59375 1050.929688 1266.382812 1050.847656 1266.179688 C 1050.769531 1265.980469 1050.652344 1265.800781 1050.5 1265.644531 C 1050.347656 1265.492188 1050.167969 1265.371094 1049.96875 1265.289062 C 1049.769531 1265.203125 1049.5625 1265.160156 1049.34375 1265.15625 C 1049.128906 1265.15625 1048.917969 1265.195312 1048.71875 1265.273438 C 1048.515625 1265.355469 1048.339844 1265.472656 1048.183594 1265.621094 C 1048.027344 1265.773438 1047.90625 1265.949219 1047.820312 1266.148438 L 1029.691406 1307.992188 C 1029.449219 1308.257812 1029.316406 1308.570312 1029.289062 1308.929688 L 1024.238281 1320.875 C 1024.183594 1320.996094 1024.144531 1321.125 1024.121094 1321.257812 C 1024.097656 1321.390625 1024.09375 1321.527344 1024.101562 1321.660156 C 1024.113281 1321.796875 1024.140625 1321.925781 1024.1875 1322.054688 C 1024.230469 1322.183594 1024.289062 1322.304688 1024.363281 1322.417969 C 1024.4375 1322.53125 1024.523438 1322.632812 1024.625 1322.722656 C 1024.722656 1322.8125 1024.832031 1322.890625 1024.953125 1322.957031 C 1025.070312 1323.019531 1025.195312 1323.066406 1025.328125 1323.101562 C 1025.457031 1323.132812 1025.59375 1323.148438 1025.726562 1323.148438 C 1026.054688 1323.148438 1026.355469 1323.058594 1026.632812 1322.882812 C 1026.90625 1322.703125 1027.109375 1322.460938 1027.242188 1322.160156 L 1032.292969 1310.570312 C 1036.738281 1309.964844 1054.511719 1307.414062 1069.460938 1303.851562 C 1078.753906 1301.628906 1082.363281 1302.917969 1083.703125 1303.851562 C 1084.273438 1304.21875 1084.632812 1304.734375 1084.789062 1305.390625 C 1084.800781 1305.605469 1084.851562 1305.808594 1084.945312 1306 C 1085.035156 1306.191406 1085.15625 1306.359375 1085.3125 1306.507812 C 1085.464844 1306.652344 1085.644531 1306.761719 1085.839844 1306.839844 C 1086.039062 1306.917969 1086.242188 1306.957031 1086.457031 1306.957031 C 1086.675781 1306.957031 1086.882812 1306.914062 1087.085938 1306.832031 C 1087.289062 1306.746094 1087.464844 1306.625 1087.617188 1306.46875 C 1087.769531 1306.308594 1087.882812 1306.128906 1087.964844 1305.925781 C 1088.042969 1305.722656 1088.078125 1305.511719 1088.070312 1305.292969 C 1088.007812 1304.503906 1087.78125 1303.765625 1087.390625 1303.078125 C 1087.003906 1302.390625 1086.488281 1301.8125 1085.847656 1301.351562 C 1082.691406 1298.824219 1076.9375 1298.648438 1068.679688 1300.621094 C 1055.523438 1303.777344 1040.171875 1306.097656 1033.808594 1307.007812 L 1038.050781 1297.210938 C 1042.113281 1296.554688 1075.75 1291.074219 1086.984375 1288.648438 C 1090.824219 1287.816406 1093.726562 1288.066406 1095.34375 1289.378906 C 1095.796875 1289.753906 1096.15625 1290.199219 1096.417969 1290.722656 C 1096.683594 1291.246094 1096.828125 1291.800781 1096.859375 1292.386719 C 1096.859375 1292.605469 1096.898438 1292.8125 1096.984375 1293.015625 C 1097.066406 1293.214844 1097.183594 1293.394531 1097.339844 1293.546875 C 1097.492188 1293.699219 1097.671875 1293.820312 1097.871094 1293.902344 C 1098.074219 1293.984375 1098.28125 1294.027344 1098.5 1294.027344 C 1098.71875 1294.027344 1098.925781 1293.984375 1099.128906 1293.902344 C 1099.328125 1293.820312 1099.507812 1293.699219 1099.660156 1293.546875 C 1099.816406 1293.394531 1099.933594 1293.214844 1100.015625 1293.015625 C 1100.097656 1292.8125 1100.140625 1292.605469 1100.140625 1292.386719 C 1100.109375 1291.3125 1099.859375 1290.292969 1099.394531 1289.324219 C 1098.925781 1288.355469 1098.285156 1287.523438 1097.464844 1286.828125 C 1094.941406 1284.808594 1091.226562 1284.304688 1086.304688 1285.414062 C 1076.203125 1287.585938 1048.125 1292.210938 1039.617188 1293.597656 L 1045.625 1279.683594 L 1102.640625 1270.769531 C 1102.859375 1270.734375 1103.058594 1270.660156 1103.246094 1270.546875 C 1103.433594 1270.433594 1103.589844 1270.289062 1103.71875 1270.113281 C 1103.851562 1269.9375 1103.941406 1269.742188 1103.992188 1269.527344 C 1104.042969 1269.316406 1104.054688 1269.101562 1104.019531 1268.886719 C 1103.988281 1268.667969 1103.914062 1268.46875 1103.800781 1268.28125 C 1103.683594 1268.09375 1103.539062 1267.9375 1103.363281 1267.808594 C 1103.1875 1267.679688 1102.992188 1267.589844 1102.777344 1267.535156 C 1102.566406 1267.484375 1102.351562 1267.476562 1102.136719 1267.511719 Z M 618.632812 1696.941406 C 586.816406 1701.183594 514.929688 1702.269531 439.554688 1701.992188 C 448.265625 1580.367188 448.445312 1360.726562 448.445312 1358.351562 C 448.445312 1358.132812 448.402344 1357.925781 448.320312 1357.722656 C 448.234375 1357.523438 448.117188 1357.34375 447.964844 1357.191406 C 447.808594 1357.035156 447.632812 1356.917969 447.429688 1356.835938 C 447.230469 1356.75 447.019531 1356.710938 446.800781 1356.710938 C 446.585938 1356.710938 446.375 1356.75 446.175781 1356.835938 C 445.972656 1356.917969 445.796875 1357.035156 445.640625 1357.191406 C 445.488281 1357.34375 445.371094 1357.523438 445.285156 1357.722656 C 445.203125 1357.925781 445.160156 1358.132812 445.160156 1358.351562 C 445.160156 1360.726562 444.984375 1580.59375 436.246094 1701.96875 C 322.621094 1701.589844 202.273438 1698.253906 200.253906 1698.207031 C 200.035156 1698.207031 199.828125 1698.246094 199.625 1698.328125 C 199.425781 1698.414062 199.246094 1698.53125 199.09375 1698.6875 C 198.941406 1698.839844 198.820312 1699.015625 198.738281 1699.21875 C 198.652344 1699.417969 198.613281 1699.628906 198.613281 1699.847656 C 198.613281 1700.0625 198.652344 1700.273438 198.738281 1700.476562 C 198.820312 1700.675781 198.941406 1700.851562 199.09375 1701.007812 C 199.246094 1701.160156 199.425781 1701.28125 199.625 1701.363281 C 199.828125 1701.445312 200.035156 1701.488281 200.253906 1701.488281 C 202.273438 1701.488281 322.441406 1704.871094 436.121094 1705.25 C 435.566406 1712.828125 434.984375 1719.746094 434.355469 1726.339844 C 434.335938 1726.554688 434.359375 1726.769531 434.425781 1726.976562 C 434.492188 1727.183594 434.59375 1727.371094 434.734375 1727.539062 C 434.871094 1727.707031 435.039062 1727.84375 435.230469 1727.945312 C 435.421875 1728.046875 435.628906 1728.109375 435.84375 1728.132812 L 435.996094 1728.132812 C 436.199219 1728.128906 436.398438 1728.089844 436.585938 1728.015625 C 436.777344 1727.941406 436.949219 1727.835938 437.097656 1727.699219 C 437.25 1727.5625 437.371094 1727.402344 437.464844 1727.21875 C 437.558594 1727.039062 437.613281 1726.84375 437.636719 1726.640625 C 438.269531 1719.976562 438.847656 1712.800781 439.402344 1705.277344 L 457.027344 1705.277344 C 525.9375 1705.277344 589.519531 1704.015625 618.988281 1700.097656 C 619.203125 1700.066406 619.402344 1699.996094 619.585938 1699.886719 C 619.773438 1699.777344 619.929688 1699.636719 620.0625 1699.464844 C 620.191406 1699.289062 620.28125 1699.097656 620.335938 1698.890625 C 620.390625 1698.679688 620.40625 1698.46875 620.375 1698.253906 C 620.339844 1698.058594 620.269531 1697.871094 620.160156 1697.699219 C 620.054688 1697.527344 619.921875 1697.382812 619.761719 1697.261719 C 619.597656 1697.140625 619.421875 1697.050781 619.226562 1696.996094 C 619.03125 1696.941406 618.835938 1696.921875 618.632812 1696.941406 Z M 369.988281 1277.132812 C 369.976562 1277.199219 369.976562 1277.265625 369.988281 1277.335938 L 220.101562 1308.726562 C 219.878906 1308.75 219.667969 1308.8125 219.472656 1308.917969 C 219.273438 1309.023438 219.105469 1309.164062 218.964844 1309.335938 C 218.824219 1309.507812 218.71875 1309.699219 218.652344 1309.914062 C 218.589844 1310.128906 218.566406 1310.347656 218.589844 1310.570312 C 218.609375 1310.792969 218.675781 1311 218.78125 1311.199219 C 218.882812 1311.394531 219.023438 1311.566406 219.195312 1311.707031 C 219.367188 1311.851562 219.5625 1311.953125 219.773438 1312.019531 C 219.988281 1312.085938 220.207031 1312.105469 220.429688 1312.085938 L 220.757812 1312.085938 L 398.726562 1274.808594 C 398.945312 1274.773438 399.152344 1274.695312 399.34375 1274.574219 C 399.53125 1274.453125 399.691406 1274.300781 399.816406 1274.117188 C 399.945312 1273.929688 400.03125 1273.726562 400.074219 1273.507812 C 400.117188 1273.285156 400.117188 1273.066406 400.070312 1272.847656 C 400.023438 1272.625 399.933594 1272.425781 399.804688 1272.242188 C 399.675781 1272.058594 399.515625 1271.90625 399.324219 1271.789062 C 399.132812 1271.671875 398.925781 1271.597656 398.703125 1271.5625 C 398.480469 1271.53125 398.261719 1271.542969 398.042969 1271.601562 L 373.753906 1276.652344 C 383.09375 1251.398438 368.171875 1197.503906 363.953125 1183.210938 L 385.039062 1182.90625 C 385.253906 1182.898438 385.464844 1182.851562 385.660156 1182.765625 C 385.859375 1182.679688 386.035156 1182.558594 386.183594 1182.402344 C 386.335938 1182.246094 386.453125 1182.066406 386.535156 1181.867188 C 386.613281 1181.664062 386.65625 1181.457031 386.65625 1181.238281 C 386.660156 1181.019531 386.617188 1180.808594 386.535156 1180.605469 C 386.449219 1180.402344 386.328125 1180.222656 386.171875 1180.070312 C 386.015625 1179.917969 385.832031 1179.800781 385.625 1179.722656 C 385.421875 1179.648438 385.207031 1179.613281 384.988281 1179.625 L 362.945312 1179.925781 L 362.945312 1179.773438 C 362.824219 1179.425781 362.609375 1179.152344 362.300781 1178.945312 C 361.996094 1178.742188 361.65625 1178.652344 361.289062 1178.675781 C 360.921875 1178.699219 360.597656 1178.832031 360.320312 1179.074219 C 360.042969 1179.316406 359.863281 1179.617188 359.789062 1179.976562 L 167.628906 1182.703125 C 167.414062 1182.707031 167.207031 1182.75 167.003906 1182.835938 C 166.804688 1182.921875 166.628906 1183.039062 166.476562 1183.191406 C 166.324219 1183.347656 166.203125 1183.523438 166.121094 1183.722656 C 166.035156 1183.921875 165.992188 1184.128906 165.988281 1184.347656 C 165.992188 1184.5625 166.035156 1184.769531 166.121094 1184.96875 C 166.203125 1185.171875 166.324219 1185.347656 166.476562 1185.5 C 166.628906 1185.652344 166.804688 1185.773438 167.003906 1185.855469 C 167.207031 1185.941406 167.414062 1185.984375 167.628906 1185.988281 L 360.546875 1183.261719 C 364.28125 1195.914062 380.542969 1253.722656 369.988281 1277.132812 Z M 254.46875 1500.5625 L 261.839844 1423.660156 C 261.734375 1423.425781 261.683594 1423.183594 261.6875 1422.929688 C 261.71875 1422.660156 261.808594 1422.414062 261.96875 1422.195312 L 264.492188 1396.6875 C 264.503906 1396.476562 264.558594 1396.273438 264.652344 1396.082031 C 264.746094 1395.886719 264.875 1395.722656 265.039062 1395.582031 C 265.199219 1395.441406 265.382812 1395.339844 265.585938 1395.273438 C 265.789062 1395.207031 265.996094 1395.179688 266.207031 1395.199219 L 379.105469 1400.601562 C 379.320312 1400.617188 379.523438 1400.667969 379.71875 1400.761719 C 379.910156 1400.851562 380.082031 1400.976562 380.226562 1401.132812 C 380.375 1401.292969 380.484375 1401.472656 380.5625 1401.671875 C 380.636719 1401.871094 380.675781 1402.082031 380.671875 1402.296875 L 377.945312 1502.582031 C 377.941406 1502.792969 377.898438 1502.996094 377.8125 1503.191406 C 377.730469 1503.386719 377.613281 1503.558594 377.460938 1503.707031 C 377.308594 1503.855469 377.136719 1503.972656 376.941406 1504.050781 C 376.742188 1504.132812 376.539062 1504.171875 376.328125 1504.171875 L 256.183594 1502.355469 C 255.707031 1502.347656 255.300781 1502.167969 254.972656 1501.824219 C 254.617188 1501.476562 254.449219 1501.058594 254.46875 1500.5625 Z M 265.324219 1421.488281 L 376.429688 1427.726562 C 376.519531 1427.710938 376.613281 1427.710938 376.707031 1427.726562 L 377.363281 1403.734375 L 267.648438 1398.558594 Z M 257.902344 1499.097656 L 374.636719 1500.863281 L 376.53125 1430.933594 C 376.4375 1430.945312 376.34375 1430.945312 376.25 1430.933594 L 265.148438 1424.722656 Z M 490.488281 1500.5625 L 497.859375 1423.660156 C 497.753906 1423.425781 497.703125 1423.183594 497.707031 1422.929688 C 497.738281 1422.660156 497.828125 1422.414062 497.984375 1422.195312 L 500.511719 1396.6875 C 500.527344 1396.476562 500.582031 1396.273438 500.679688 1396.085938 C 500.773438 1395.894531 500.902344 1395.730469 501.0625 1395.589844 C 501.222656 1395.449219 501.40625 1395.347656 501.605469 1395.28125 C 501.808594 1395.210938 502.015625 1395.183594 502.226562 1395.199219 L 615.125 1400.601562 C 615.339844 1400.617188 615.542969 1400.667969 615.738281 1400.761719 C 615.929688 1400.851562 616.101562 1400.976562 616.246094 1401.132812 C 616.390625 1401.292969 616.503906 1401.472656 616.582031 1401.671875 C 616.65625 1401.871094 616.695312 1402.082031 616.691406 1402.296875 L 613.960938 1502.582031 C 613.960938 1502.796875 613.914062 1503 613.828125 1503.199219 C 613.746094 1503.394531 613.625 1503.566406 613.472656 1503.71875 C 613.316406 1503.867188 613.140625 1503.980469 612.941406 1504.058594 C 612.742188 1504.136719 612.535156 1504.175781 612.320312 1504.171875 L 492.179688 1502.355469 C 491.703125 1502.351562 491.308594 1502.175781 490.992188 1501.824219 C 490.636719 1501.476562 490.46875 1501.054688 490.488281 1500.5625 Z M 501.34375 1421.488281 L 612.449219 1427.726562 C 612.539062 1427.710938 612.632812 1427.710938 612.726562 1427.726562 L 613.382812 1403.734375 L 503.640625 1398.480469 Z M 493.921875 1499.097656 L 610.65625 1500.863281 L 612.546875 1430.933594 C 612.457031 1430.945312 612.363281 1430.945312 612.269531 1430.933594 L 501.167969 1424.722656 Z M 935.378906 1253.367188 C 935.167969 1253.367188 934.960938 1253.40625 934.761719 1253.488281 C 934.566406 1253.566406 934.390625 1253.683594 934.238281 1253.832031 C 934.082031 1253.980469 933.964844 1254.152344 933.878906 1254.347656 C 933.792969 1254.542969 933.746094 1254.746094 933.738281 1254.957031 C 933.738281 1255.691406 931.792969 1327.160156 919.445312 1351.835938 C 919.351562 1352.03125 919.292969 1352.234375 919.28125 1352.453125 C 919.265625 1352.667969 919.289062 1352.878906 919.359375 1353.085938 C 919.429688 1353.292969 919.535156 1353.476562 919.675781 1353.640625 C 919.816406 1353.804688 919.984375 1353.9375 920.179688 1354.03125 C 920.410156 1354.152344 920.652344 1354.210938 920.910156 1354.210938 C 921.222656 1354.210938 921.511719 1354.132812 921.773438 1353.96875 C 922.039062 1353.804688 922.238281 1353.582031 922.375 1353.300781 C 935 1328.046875 936.945312 1258.015625 937.019531 1255.035156 C 937.023438 1254.816406 936.984375 1254.601562 936.902344 1254.398438 C 936.820312 1254.195312 936.703125 1254.015625 936.550781 1253.859375 C 936.394531 1253.699219 936.21875 1253.578125 936.015625 1253.496094 C 935.8125 1253.410156 935.601562 1253.367188 935.378906 1253.367188 Z M 733.375 1194.75 L 710.773438 1203.792969 C 710.570312 1203.875 710.394531 1203.992188 710.238281 1204.144531 C 710.082031 1204.300781 709.964844 1204.476562 709.878906 1204.679688 C 709.792969 1204.878906 709.75 1205.089844 709.75 1205.308594 C 709.746094 1205.523438 709.785156 1205.734375 709.867188 1205.9375 C 709.949219 1206.140625 710.066406 1206.320312 710.222656 1206.476562 C 710.375 1206.628906 710.550781 1206.75 710.75 1206.835938 C 710.953125 1206.921875 711.164062 1206.964844 711.378906 1206.96875 C 711.597656 1206.96875 711.808594 1206.929688 712.011719 1206.847656 L 729.964844 1199.652344 L 713.550781 1226.21875 C 713.4375 1226.402344 713.367188 1226.601562 713.332031 1226.816406 C 713.296875 1227.027344 713.304688 1227.242188 713.355469 1227.453125 C 713.40625 1227.660156 713.492188 1227.855469 713.617188 1228.03125 C 713.746094 1228.207031 713.898438 1228.351562 714.082031 1228.464844 C 714.34375 1228.632812 714.628906 1228.71875 714.941406 1228.71875 C 715.230469 1228.722656 715.5 1228.652344 715.75 1228.515625 C 716.003906 1228.375 716.203125 1228.183594 716.355469 1227.9375 L 735.316406 1197.226562 C 735.523438 1196.941406 735.628906 1196.621094 735.628906 1196.265625 C 735.628906 1195.914062 735.523438 1195.59375 735.316406 1195.308594 C 735.089844 1194.992188 734.789062 1194.785156 734.417969 1194.683594 C 734.042969 1194.578125 733.679688 1194.601562 733.324219 1194.75 Z M 733.375 1194.75 " fill-opacity="1" fill-rule="nonzero"/><path fill="rgb(91.369629%, 91.758728%, 96.469116%)" d="M 492.757812 856.617188 C 460.96875 870.480469 438.34375 865.882812 426.25 860.859375 C 426.0625 860.871094 425.878906 860.871094 425.691406 860.859375 C 425.433594 860.90625 425.171875 860.90625 424.910156 860.859375 C 422.082031 859.949219 355.445312 837.851562 350.269531 809.867188 C 350.207031 809.535156 350.214844 809.199219 350.289062 808.867188 C 350.359375 808.535156 350.492188 808.230469 350.6875 807.949219 C 350.882812 807.671875 351.121094 807.4375 351.40625 807.253906 C 351.695312 807.070312 352.003906 806.949219 352.339844 806.886719 C 352.675781 806.828125 353.007812 806.835938 353.339844 806.90625 C 353.671875 806.980469 353.980469 807.113281 354.257812 807.308594 C 354.539062 807.5 354.769531 807.742188 354.953125 808.027344 C 355.136719 808.3125 355.257812 808.625 355.320312 808.960938 C 358.625 826.890625 393.347656 843.179688 413.066406 851.058594 C 401.300781 833.660156 397.917969 808.429688 397.183594 799.085938 C 390.214844 790.296875 375.921875 774.992188 357.0625 768.777344 C 356.746094 768.671875 356.460938 768.511719 356.210938 768.292969 C 355.960938 768.074219 355.757812 767.8125 355.609375 767.515625 C 355.460938 767.21875 355.375 766.902344 355.351562 766.570312 C 355.328125 766.238281 355.367188 765.914062 355.46875 765.597656 C 355.574219 765.277344 355.734375 764.992188 355.953125 764.738281 C 356.171875 764.484375 356.429688 764.28125 356.726562 764.128906 C 357.023438 763.980469 357.339844 763.890625 357.675781 763.863281 C 358.007812 763.839844 358.335938 763.878906 358.652344 763.980469 C 377.136719 770.167969 391.148438 783.957031 399.054688 793.378906 C 442.839844 748.246094 515.433594 749.359375 515.433594 749.359375 C 529.070312 782.492188 542.074219 835.097656 492.757812 856.617188 Z M 492.757812 856.617188 " fill-opacity="1" fill-rule="nonzero"/><path fill="rgb(70.588684%, 56.858826%, 79.219055%)" d="M 440.160156 796.078125 C 439.890625 796.269531 439.585938 796.363281 439.253906 796.359375 C 438.671875 796.363281 438.21875 796.125 437.890625 795.648438 C 437.769531 795.46875 437.6875 795.269531 437.648438 795.054688 C 437.605469 794.84375 437.601562 794.628906 437.644531 794.414062 C 437.683594 794.199219 437.761719 794.003906 437.878906 793.820312 C 437.996094 793.632812 438.140625 793.480469 438.320312 793.351562 C 439.960938 792.265625 478.566406 766.605469 508.113281 774.839844 C 508.320312 774.902344 508.507812 775 508.675781 775.136719 C 508.84375 775.269531 508.980469 775.433594 509.089844 775.621094 C 509.195312 775.808594 509.261719 776.011719 509.289062 776.226562 C 509.316406 776.441406 509.300781 776.652344 509.246094 776.859375 C 509.191406 777.070312 509.097656 777.265625 508.964844 777.4375 C 508.832031 777.613281 508.667969 777.753906 508.480469 777.863281 C 508.289062 777.972656 508.085938 778.039062 507.871094 778.066406 C 507.652344 778.09375 507.4375 778.082031 507.226562 778.023438 C 479.175781 770.167969 440.539062 795.828125 440.160156 796.078125 Z M 510.585938 798.351562 C 510.53125 798.140625 510.433594 797.949219 510.300781 797.777344 C 510.167969 797.605469 510.007812 797.464844 509.816406 797.359375 C 509.625 797.25 509.421875 797.183594 509.207031 797.160156 C 508.988281 797.136719 508.773438 797.152344 508.566406 797.214844 L 448.949219 814.160156 C 448.738281 814.222656 448.550781 814.316406 448.378906 814.453125 C 448.207031 814.585938 448.070312 814.746094 447.964844 814.9375 C 447.855469 815.125 447.789062 815.328125 447.765625 815.546875 C 447.738281 815.761719 447.753906 815.972656 447.8125 816.183594 C 447.917969 816.535156 448.117188 816.820312 448.414062 817.039062 C 448.707031 817.257812 449.035156 817.367188 449.402344 817.371094 L 449.859375 817.371094 L 509.476562 800.421875 C 509.6875 800.363281 509.878906 800.261719 510.050781 800.125 C 510.222656 799.984375 510.363281 799.816406 510.46875 799.621094 C 510.570312 799.425781 510.632812 799.21875 510.65625 799 C 510.675781 798.777344 510.652344 798.5625 510.585938 798.351562 Z M 507.203125 821.992188 C 490.964844 837.574219 453.242188 835.804688 452.863281 835.78125 C 452.632812 835.742188 452.402344 835.753906 452.175781 835.8125 C 451.949219 835.875 451.746094 835.976562 451.566406 836.125 C 451.382812 836.273438 451.238281 836.449219 451.132812 836.660156 C 451.027344 836.867188 450.96875 837.089844 450.960938 837.324219 C 450.949219 837.558594 450.984375 837.785156 451.070312 838 C 451.15625 838.21875 451.285156 838.410156 451.449219 838.574219 C 451.617188 838.738281 451.8125 838.859375 452.03125 838.941406 C 452.25 839.023438 452.476562 839.054688 452.710938 839.039062 C 453.015625 839.039062 454.65625 839.039062 457.257812 839.039062 C 468.140625 839.039062 495.535156 837.648438 509.476562 824.265625 C 509.632812 824.113281 509.753906 823.9375 509.84375 823.738281 C 509.929688 823.539062 509.976562 823.332031 509.980469 823.113281 C 509.984375 822.894531 509.949219 822.683594 509.871094 822.480469 C 509.792969 822.277344 509.675781 822.097656 509.527344 821.941406 C 509.375 821.78125 509.199219 821.660156 509 821.574219 C 508.800781 821.484375 508.59375 821.4375 508.375 821.433594 C 508.15625 821.429688 507.945312 821.464844 507.742188 821.546875 C 507.539062 821.625 507.359375 821.738281 507.203125 821.890625 Z M 507.203125 821.992188 " fill-opacity="1" fill-rule="nonzero"/><path fill="rgb(91.369629%, 91.758728%, 96.469116%)" d="M 468.441406 920.636719 C 454.808594 934.273438 433.949219 941.34375 407.6875 941.34375 C 403.675781 941.34375 399.53125 941.195312 395.289062 940.839844 C 380.277344 939.628906 365.582031 936.785156 351.203125 932.304688 C 350.996094 932.238281 350.808594 932.132812 350.644531 931.992188 C 350.476562 931.851562 350.347656 931.683594 350.25 931.488281 C 350.152344 931.292969 350.09375 931.085938 350.082031 930.867188 C 350.066406 930.652344 350.097656 930.4375 350.167969 930.234375 C 350.238281 930.027344 350.34375 929.84375 350.484375 929.679688 C 350.628906 929.515625 350.796875 929.386719 350.988281 929.289062 C 351.183594 929.191406 351.390625 929.132812 351.605469 929.117188 C 351.820312 929.101562 352.03125 929.128906 352.238281 929.199219 C 358.878906 931.261719 365.609375 932.945312 372.4375 934.25 L 367.136719 903.3125 C 367.109375 903.101562 367.121094 902.894531 367.175781 902.691406 C 367.230469 902.484375 367.320312 902.296875 367.445312 902.128906 C 367.570312 901.957031 367.722656 901.816406 367.902344 901.707031 C 368.082031 901.59375 368.277344 901.523438 368.488281 901.484375 C 368.695312 901.449219 368.902344 901.453125 369.109375 901.5 C 369.316406 901.542969 369.507812 901.625 369.683594 901.742188 C 369.859375 901.863281 370.003906 902.007812 370.125 902.183594 C 370.242188 902.359375 370.324219 902.550781 370.367188 902.753906 L 375.875 934.90625 C 381.378906 935.914062 387.5625 936.800781 394.105469 937.429688 L 390.621094 909.902344 C 390.589844 909.6875 390.605469 909.472656 390.660156 909.261719 C 390.71875 909.050781 390.8125 908.859375 390.945312 908.6875 C 391.078125 908.515625 391.238281 908.375 391.425781 908.265625 C 391.613281 908.15625 391.816406 908.085938 392.035156 908.058594 C 392.25 908.03125 392.460938 908.042969 392.671875 908.101562 C 392.882812 908.15625 393.074219 908.25 393.25 908.382812 C 393.421875 908.515625 393.5625 908.675781 393.671875 908.867188 C 393.78125 909.054688 393.847656 909.257812 393.875 909.472656 L 397.460938 937.683594 C 404.992188 938.230469 412.515625 938.171875 420.035156 937.507812 L 416.929688 911.773438 C 416.902344 911.554688 416.917969 911.34375 416.972656 911.132812 C 417.027344 910.921875 417.125 910.730469 417.253906 910.554688 C 417.386719 910.382812 417.550781 910.242188 417.738281 910.132812 C 417.925781 910.023438 418.128906 909.957031 418.34375 909.929688 C 418.5625 909.90625 418.773438 909.925781 418.984375 909.984375 C 419.191406 910.046875 419.382812 910.144531 419.554688 910.277344 C 419.726562 910.410156 419.867188 910.574219 419.976562 910.761719 C 420.085938 910.949219 420.15625 911.152344 420.1875 911.367188 L 423.292969 937.179688 C 431.117188 936.304688 438.695312 934.429688 446.019531 931.546875 L 442.332031 906.644531 C 442.296875 906.429688 442.304688 906.21875 442.355469 906.003906 C 442.402344 905.792969 442.492188 905.597656 442.621094 905.421875 C 442.75 905.246094 442.90625 905.101562 443.09375 904.992188 C 443.28125 904.878906 443.480469 904.808594 443.695312 904.777344 C 443.914062 904.742188 444.125 904.753906 444.339844 904.808594 C 444.550781 904.859375 444.746094 904.953125 444.917969 905.082031 C 445.09375 905.210938 445.238281 905.371094 445.351562 905.558594 C 445.460938 905.746094 445.535156 905.949219 445.566406 906.164062 L 449.125 930.183594 C 455.535156 927.261719 461.25 923.332031 466.269531 918.386719 C 466.425781 918.234375 466.601562 918.113281 466.804688 918.03125 C 467.003906 917.945312 467.214844 917.902344 467.433594 917.902344 C 467.652344 917.902344 467.863281 917.945312 468.0625 918.027344 C 468.265625 918.113281 468.441406 918.230469 468.597656 918.386719 C 468.75 918.539062 468.871094 918.71875 468.953125 918.917969 C 469.039062 919.121094 469.078125 919.332031 469.078125 919.550781 C 469.078125 919.765625 469.035156 919.976562 468.953125 920.179688 C 468.867188 920.378906 468.75 920.558594 468.59375 920.710938 Z M 468.441406 920.636719 " fill-opacity="1" fill-rule="nonzero"/></svg>