<svg xmlns="http://www.w3.org/2000/svg" xmlns:xlink="http://www.w3.org/1999/xlink" width="1296" zoomAndPan="magnify" viewBox="0 0 1296 1727.999927" height="1727.999927" preserveAspectRatio="xMidYMid meet" version="1.0"><defs><clipPath id="id1"><path d="M 625.542969 768 L 724 768 L 724 957 L 625.542969 957 Z M 625.542969 768 " clip-rule="nonzero"/></clipPath><clipPath id="id2"><path d="M 635.449219 1025.496094 L 553.027344 1001.117188 L 641.546875 701.679688 L 723.964844 726.054688 Z M 635.449219 1025.496094 " clip-rule="nonzero"/></clipPath><clipPath id="id3"><path d="M 787 762.535156 L 818 762.535156 L 818 868 L 787 868 Z M 787 762.535156 " clip-rule="nonzero"/></clipPath><clipPath id="id4"><path d="M 843.476562 867.398438 L 787.523438 865.484375 L 791.550781 747.988281 L 847.503906 749.902344 Z M 843.476562 867.398438 " clip-rule="nonzero"/></clipPath><clipPath id="id5"><path d="M 831 699 L 1041.6875 699 L 1041.6875 1082 L 831 1082 Z M 831 699 " clip-rule="nonzero"/></clipPath></defs><rect x="-129.6" width="1555.2" fill="rgb(100%, 100%, 100%)" y="-172.799993" height="2073.599912" fill-opacity="1"/><rect x="-129.6" width="1555.2" fill="rgb(100%, 100%, 100%)" y="-172.799993" height="2073.599912" fill-opacity="1"/><path fill="rgb(15.289307%, 44.709778%, 87.059021%)" d="M 0.00390625 788.003906 L 1295.996094 788.003906 L 1295.996094 1725.503906 L 0.00390625 1725.503906 L 0.00390625 788.003906 " fill-opacity="1" fill-rule="nonzero"/><path fill="rgb(89.019775%, 46.669006%, 28.239441%)" d="M 302.578125 921.550781 C 297.371094 916.914062 292.8125 911.625 288.257812 906.351562 C 284.339844 901.792969 280.371094 897.1875 277.480469 891.914062 C 277.105469 891.246094 276.75 890.5625 276.40625 889.875 C 273.609375 884.433594 265.273438 888.242188 267.730469 893.84375 C 270.4375 899.957031 274.089844 905.789062 277.542969 911.34375 C 282.753906 919.730469 288.039062 928.050781 293.574219 936.21875 C 294.414062 937.464844 295.300781 938.675781 296.53125 939.5 C 298.195312 940.621094 300.261719 940.933594 302.238281 941.242188 C 315.597656 943.3125 328.707031 946.9375 341.238281 951.992188 C 332.035156 937.058594 315.300781 932.859375 302.578125 921.550781 " fill-opacity="1" fill-rule="nonzero"/><path fill="rgb(89.019775%, 46.669006%, 28.239441%)" d="M 318.925781 922.328125 C 313.214844 918.3125 308.085938 913.585938 302.96875 908.855469 C 298.535156 904.78125 294.074219 900.65625 290.589844 895.742188 C 290.171875 895.136719 289.734375 894.496094 289.300781 893.84375 C 285.910156 888.757812 278.054688 893.5 281.136719 898.773438 C 284.507812 904.546875 288.832031 909.929688 292.890625 915.046875 C 299.019531 922.777344 305.222656 930.449219 311.644531 937.929688 C 312.625 939.066406 313.652344 940.171875 314.957031 940.855469 C 316.746094 941.773438 318.832031 941.851562 320.835938 941.929688 C 334.335938 942.472656 347.769531 944.574219 360.804688 948.164062 C 349.949219 934.382812 332.84375 932.113281 318.925781 922.328125 " fill-opacity="1" fill-rule="nonzero"/><path fill="rgb(95.289612%, 67.449951%, 44.309998%)" d="M 375.109375 906.675781 C 370.523438 906.800781 365.902344 907.175781 361.378906 906.523438 C 345.515625 904.21875 332.125 889.566406 316.015625 890.996094 C 312.921875 891.261719 309.328125 892.613281 308.117188 896.128906 C 306.53125 900.71875 310.074219 905.058594 313.355469 907.734375 C 323.183594 915.761719 333.914062 922.296875 345.191406 927.195312 C 348.875 928.78125 352.714844 930.261719 355.65625 933.308594 C 357.785156 935.519531 359.324219 938.425781 361.050781 941.101562 C 373.351562 960.097656 411.125 972.152344 426.039062 946.359375 C 443.96875 915.328125 389.742188 906.304688 375.109375 906.675781 " fill-opacity="1" fill-rule="nonzero"/><path fill="rgb(95.289612%, 67.449951%, 44.309998%)" d="M 343.121094 935.472656 C 340.742188 935.8125 338.332031 935.347656 335.96875 934.894531 C 323.792969 932.546875 311.613281 930.214844 299.4375 927.863281 C 297.496094 927.492188 295.519531 927.101562 293.839844 926.089844 C 291.320312 924.597656 289.765625 921.9375 288.195312 919.449219 C 281.429688 908.714844 272.410156 899.429688 261.945312 892.289062 C 258.226562 889.769531 253.625 894.125 255.925781 897.964844 C 256.921875 899.660156 258.027344 901.3125 259.113281 902.914062 C 266.546875 913.878906 273.964844 924.863281 281.398438 935.828125 C 283.21875 938.519531 285.070312 941.242188 287.574219 943.3125 C 291.523438 946.59375 296.703125 947.902344 301.632812 949.363281 C 314.007812 953.003906 325.984375 958.074219 337.226562 964.421875 C 339.824219 965.882812 342.40625 967.425781 345.25 968.3125 C 349.078125 969.492188 353.167969 969.398438 357.179688 969.398438 C 379.945312 969.382812 402.589844 972.417969 425.152344 975.28125 C 429.957031 948.632812 427.9375 959.832031 432.742188 933.183594 C 416.195312 929.515625 399.261719 927.632812 382.308594 927.554688 C 375.21875 927.523438 367.566406 927.210938 360.617188 928.75 C 354.503906 930.121094 349.265625 934.617188 343.121094 935.472656 " fill-opacity="1" fill-rule="nonzero"/><path fill="rgb(16.859436%, 17.649841%, 24.308777%)" d="M 705.476562 1366.050781 L 567.148438 1354.929688 L 577.460938 1687.582031 L 692.566406 1690.242188 L 705.476562 1366.050781 " fill-opacity="1" fill-rule="nonzero"/><path fill="rgb(16.859436%, 17.649841%, 24.308777%)" d="M 692.257812 1687.925781 C 683.765625 1718.570312 652.042969 1736.535156 621.40625 1728.058594 C 590.769531 1719.566406 572.808594 1687.847656 581.300781 1657.183594 C 589.777344 1626.539062 621.484375 1608.570312 652.136719 1617.066406 C 682.769531 1625.542969 700.730469 1657.277344 692.257812 1687.925781 " fill-opacity="1" fill-rule="nonzero"/><path fill="rgb(16.859436%, 17.649841%, 24.308777%)" d="M 580.445312 1672.042969 L 575.59375 2014.261719 L 669.738281 2024.730469 L 694.574219 1655.941406 L 580.445312 1672.042969 " fill-opacity="1" fill-rule="nonzero"/><path fill="rgb(16.859436%, 17.649841%, 24.308777%)" d="M 892.695312 1634.878906 C 897.671875 1666.285156 876.257812 1695.796875 844.875 1700.773438 C 813.460938 1705.765625 783.976562 1684.347656 778.984375 1652.9375 C 773.992188 1621.53125 795.421875 1592.019531 826.820312 1587.027344 C 858.21875 1582.046875 887.703125 1603.46875 892.695312 1634.878906 " fill-opacity="1" fill-rule="nonzero"/><path fill="rgb(16.859436%, 17.649841%, 24.308777%)" d="M 847.191406 1313.640625 L 709.113281 1327.535156 L 778.984375 1652.9375 L 892.695312 1634.878906 L 847.191406 1313.640625 " fill-opacity="1" fill-rule="nonzero"/><path fill="rgb(16.859436%, 17.649841%, 24.308777%)" d="M 781.550781 1663.5 L 854.578125 1997.863281 L 948.648438 1986.664062 L 889.039062 1621.871094 L 781.550781 1663.5 " fill-opacity="1" fill-rule="nonzero"/><path fill="rgb(16.859436%, 17.649841%, 24.308777%)" d="M 755.550781 1435.074219 L 635.714844 1430.96875 C 609.449219 1430.066406 588.703125 1407.835938 589.605469 1381.578125 L 596.324219 1185.492188 C 597.226562 1159.214844 619.445312 1138.464844 645.714844 1139.367188 L 765.550781 1143.472656 C 791.816406 1144.375 812.558594 1166.605469 811.65625 1192.863281 L 804.941406 1388.949219 C 804.039062 1415.222656 781.816406 1435.976562 755.550781 1435.074219 " fill-opacity="1" fill-rule="nonzero"/><path fill="rgb(81.568909%, 86.268616%, 85.879517%)" d="M 577.445312 840.113281 C 571.890625 866.824219 589.03125 892.988281 615.746094 898.542969 C 642.445312 904.09375 668.589844 886.953125 674.15625 860.226562 C 679.691406 833.515625 662.554688 807.367188 635.855469 801.796875 C 609.152344 796.261719 582.996094 813.402344 577.445312 840.113281 " fill-opacity="1" fill-rule="nonzero"/><path fill="rgb(81.568909%, 86.268616%, 85.879517%)" d="M 522.71875 1103.339844 C 517.167969 1130.046875 534.320312 1156.214844 561.023438 1161.769531 C 587.722656 1167.320312 613.878906 1150.164062 619.433594 1123.453125 C 624.984375 1096.742188 607.832031 1070.578125 581.128906 1065.023438 C 554.429688 1059.46875 528.273438 1076.628906 522.71875 1103.339844 " fill-opacity="1" fill-rule="nonzero"/><path fill="rgb(81.568909%, 86.268616%, 85.879517%)" d="M 567.785156 1121.273438 L 570.945312 1121.929688 C 596.664062 1127.296875 622.089844 1110.601562 627.441406 1084.875 L 664.421875 907.019531 C 669.769531 881.289062 653.101562 855.855469 627.378906 850.503906 L 624.222656 849.851562 C 598.484375 844.5 573.074219 861.175781 567.710938 886.90625 L 530.746094 1064.757812 C 525.394531 1090.488281 542.066406 1115.921875 567.785156 1121.273438 " fill-opacity="1" fill-rule="nonzero"/><path fill="rgb(81.568909%, 86.268616%, 85.879517%)" d="M 607.582031 1081.558594 C 592.1875 1065.460938 563.726562 1067.714844 544.023438 1086.570312 C 524.320312 1105.4375 520.824219 1133.78125 536.21875 1149.867188 C 551.613281 1165.96875 580.070312 1163.710938 599.773438 1144.859375 C 619.476562 1125.988281 622.976562 1097.644531 607.582031 1081.558594 " fill-opacity="1" fill-rule="nonzero"/><path fill="rgb(81.568909%, 86.268616%, 85.879517%)" d="M 451.136719 918.019531 L 379.773438 986.339844 L 536.21875 1149.867188 L 607.582031 1081.558594 L 451.136719 918.019531 " fill-opacity="1" fill-rule="nonzero"/><path fill="rgb(86.669922%, 91.369629%, 90.979004%)" d="M 690.019531 779.535156 L 676.070312 1074.746094 L 811.097656 805.21875 C 814.9375 797.550781 819.882812 790.472656 825.792969 784.203125 L 867.378906 804.597656 C 909.472656 825.242188 933.28125 870.851562 926.175781 917.226562 L 900.222656 1230.074219 L 927.234375 1548.976562 L 711.355469 1543.640625 L 680.796875 1270.628906 L 640.613281 1534.992188 L 529.265625 1533.949219 C 529.265625 1533.949219 576.136719 1249.347656 575.34375 1211.734375 C 574.707031 1181.617188 579.824219 943.421875 581.890625 849.554688 C 582.375 827.667969 596.992188 808.628906 618.015625 802.542969 C 634.921875 797.628906 658.511719 790.316406 690.019531 779.535156 " fill-opacity="1" fill-rule="nonzero"/><path fill="rgb(92.939758%, 96.078491%, 96.078491%)" d="M 758.613281 1287.679688 L 837.035156 1276.914062 L 833.117188 1248.289062 L 754.679688 1259.070312 L 758.613281 1287.679688 " fill-opacity="1" fill-rule="nonzero"/><path fill="rgb(92.939758%, 96.078491%, 96.078491%)" d="M 575.28125 1266.070312 L 631.1875 1280.335938 L 638.328125 1252.335938 L 582.421875 1238.070312 L 575.28125 1266.070312 " fill-opacity="1" fill-rule="nonzero"/><path fill="rgb(84.709167%, 83.139038%, 82.749939%)" d="M 807.894531 781.140625 C 808.78125 781.292969 809.792969 781.527344 810.242188 782.304688 C 810.679688 783.050781 810.414062 783.984375 810.132812 784.808594 C 799.761719 814.585938 779.917969 841.109375 754.058594 859.792969 C 746.53125 865.234375 737.589844 870.230469 728.320312 868.859375 C 721.335938 867.832031 715.289062 863.230469 711.230469 857.566406 C 707.171875 851.917969 704.851562 845.246094 702.925781 838.589844 C 699.9375 828.242188 697.777344 817.617188 697.046875 806.882812 C 696.582031 800.132812 694.214844 784.5 700.761719 780.082031 C 707.542969 775.507812 724.183594 776.9375 732.191406 776.535156 C 744.105469 775.914062 756.0625 775.929688 767.976562 776.582031 C 781.363281 777.3125 794.691406 778.820312 807.894531 781.140625 " fill-opacity="1" fill-rule="nonzero"/><path fill="rgb(95.289612%, 67.449951%, 44.309998%)" d="M 789.621094 837.871094 L 708.382812 835.089844 L 712.519531 713.984375 L 793.773438 716.769531 L 789.621094 837.871094 " fill-opacity="1" fill-rule="nonzero"/><path fill="rgb(33.729553%, 25.878906%, 27.059937%)" d="M 789.714844 468.242188 L 782.855469 463.0625 C 772.1875 456.464844 762.019531 449.1875 752.457031 441.347656 C 747.449219 437.238281 742.238281 432.277344 742.144531 426.367188 C 739.890625 432.183594 739.300781 438.5625 740.417969 444.785156 C 729.300781 439.820312 720.511719 430.597656 716.859375 420.050781 C 710.28125 427.453125 706.890625 437.128906 707.496094 446.820312 C 694.589844 445.125 682.691406 436.789062 677.65625 425.882812 C 672.132812 434.453125 666.785156 443.210938 663.644531 452.78125 C 660.5 462.347656 659.707031 472.863281 663.285156 482.585938 C 666.878906 492.324219 675.320312 501.097656 686.207031 504.253906 C 691.652344 505.824219 697.375 505.980469 702.972656 506.773438 C 715.675781 508.59375 727.589844 513.761719 739.8125 517.632812 C 752.035156 521.492188 765.441406 524.074219 777.414062 520.621094 C 788.671875 517.351562 797.476562 508.578125 799.917969 498.171875 C 802.359375 487.765625 798.378906 476.066406 789.714844 468.242188 " fill-opacity="1" fill-rule="nonzero"/><path fill="rgb(33.729553%, 25.878906%, 27.059937%)" d="M 906.457031 617.363281 C 890.144531 695.890625 823.257812 748.394531 757.058594 734.625 C 690.859375 720.875 650.410156 646.066406 666.722656 567.539062 C 683.035156 488.996094 749.921875 436.492188 816.121094 450.257812 C 882.320312 464.011719 922.753906 538.820312 906.457031 617.363281 " fill-opacity="1" fill-rule="nonzero"/><path fill="rgb(95.289612%, 67.449951%, 44.309998%)" d="M 656.472656 584.835938 C 673.191406 565.734375 686.316406 597.21875 686.316406 597.21875 L 681.882812 649.253906 C 651.1875 635.441406 639.773438 603.953125 656.472656 584.835938 " fill-opacity="1" fill-rule="nonzero"/><path fill="rgb(89.019775%, 46.669006%, 28.239441%)" d="M 682.257812 608.433594 C 682.257812 608.433594 676.394531 589.269531 666.425781 592.707031 C 656.457031 596.128906 652.742188 623.726562 678.773438 634.925781 L 682.257812 608.433594 " fill-opacity="1" fill-rule="nonzero"/><path fill="rgb(95.289612%, 67.449951%, 44.309998%)" d="M 872.554688 564.378906 C 861.53125 617.394531 809.652344 651.449219 756.667969 640.433594 C 703.671875 629.421875 669.644531 577.507812 680.65625 524.507812 C 691.652344 471.492188 743.542969 437.457031 796.527344 448.46875 C 849.523438 459.484375 883.550781 511.378906 872.554688 564.378906 " fill-opacity="1" fill-rule="nonzero"/><path fill="rgb(95.289612%, 67.449951%, 44.309998%)" d="M 850.519531 670.457031 C 839.507812 723.457031 835.824219 766.625 734.632812 746.496094 C 638.527344 727.363281 647.609375 683.570312 658.621094 630.570312 C 669.628906 577.554688 721.507812 543.519531 774.507812 554.53125 C 827.488281 565.546875 861.53125 617.441406 850.519531 670.457031 " fill-opacity="1" fill-rule="nonzero"/><path fill="rgb(95.289612%, 67.449951%, 44.309998%)" d="M 848.871094 678.4375 L 656.957031 638.550781 L 681.339844 521.210938 L 873.238281 561.097656 L 848.871094 678.4375 " fill-opacity="1" fill-rule="nonzero"/><path fill="rgb(6.269836%, 5.879211%, 5.099487%)" d="M 765.625 615.730469 C 764.085938 623.183594 766.40625 629.980469 770.804688 630.898438 C 775.222656 631.816406 780.058594 626.511719 781.597656 619.042969 C 783.152344 611.59375 780.835938 604.792969 776.417969 603.875 C 772.003906 602.972656 767.183594 608.277344 765.625 615.730469 " fill-opacity="1" fill-rule="nonzero"/><path fill="rgb(6.269836%, 5.879211%, 5.099487%)" d="M 705.585938 603.160156 C 704.042969 610.597656 699.222656 615.871094 694.808594 614.953125 C 690.40625 614.035156 688.074219 607.285156 689.613281 599.847656 C 691.152344 592.425781 695.988281 587.152344 700.40625 588.054688 C 704.808594 588.988281 707.140625 595.742188 705.585938 603.160156 " fill-opacity="1" fill-rule="nonzero"/><path fill="rgb(83.918762%, 33.729553%, 16.859436%)" d="M 736.59375 615.046875 C 735.597656 620.304688 734.152344 625.375 732.566406 630.398438 C 730.964844 635.410156 729.191406 640.339844 727.308594 645.210938 L 725.863281 648.863281 L 724.402344 652.488281 L 724.027344 653.390625 L 723.746094 654.199219 C 723.578125 654.730469 723.328125 655.257812 723.25 655.820312 C 723.140625 656.378906 722.953125 656.921875 722.921875 657.484375 L 722.816406 658.339844 C 722.816406 658.480469 722.785156 658.632812 722.785156 658.773438 L 722.785156 659.210938 C 722.628906 663.847656 724.464844 668.746094 727.339844 673.226562 C 726.203125 672.511719 725.164062 671.625 724.214844 670.644531 C 723.71875 670.175781 723.296875 669.632812 722.832031 669.121094 C 722.425781 668.558594 721.992188 668.03125 721.617188 667.421875 C 720.09375 665.089844 719.003906 662.367188 718.648438 659.429688 C 718.476562 657.964844 718.476562 656.457031 718.695312 654.980469 C 718.742188 654.230469 718.941406 653.515625 719.128906 652.785156 L 719.410156 651.710938 L 719.71875 650.761719 C 720.125 649.503906 720.574219 648.257812 721.011719 647.015625 L 722.410156 643.3125 C 724.324219 638.394531 726.4375 633.589844 728.753906 628.859375 C 731.089844 624.128906 733.589844 619.480469 736.59375 615.046875 " fill-opacity="1" fill-rule="nonzero"/><path fill="rgb(33.729553%, 25.878906%, 27.059937%)" d="M 797.242188 445.09375 C 742.890625 433.800781 689.660156 467.761719 676.660156 521.289062 L 676.582031 521.289062 L 670.128906 575.160156 C 678.433594 556.976562 689.738281 530.1875 717.839844 511.753906 C 717.839844 511.753906 742.457031 551.871094 816.710938 534.277344 C 816.710938 534.277344 855.339844 563.476562 854.097656 669.507812 L 877.5625 563.042969 L 877.484375 563.027344 C 886.878906 508.734375 851.578125 456.386719 797.242188 445.09375 " fill-opacity="1" fill-rule="nonzero"/><path fill="rgb(33.729553%, 25.878906%, 27.059937%)" d="M 714.851562 583.589844 L 684.15625 577.214844 C 680.671875 576.480469 678.570312 572.933594 679.613281 569.542969 L 681.355469 563.820312 C 682.414062 560.414062 686.160156 558.65625 689.457031 560.023438 L 718.414062 572.125 C 721.074219 573.246094 722.582031 576.09375 721.992188 578.925781 C 721.304688 582.175781 718.117188 584.277344 714.851562 583.589844 " fill-opacity="1" fill-rule="nonzero"/><path fill="rgb(33.729553%, 25.878906%, 27.059937%)" d="M 761.613281 593.3125 L 792.328125 599.691406 C 795.796875 600.40625 799.140625 597.996094 799.542969 594.464844 L 800.210938 588.523438 C 800.617188 584.976562 797.863281 581.863281 794.304688 581.816406 L 762.921875 581.382812 C 760.027344 581.335938 757.523438 583.359375 756.933594 586.1875 C 756.265625 589.441406 758.347656 592.628906 761.613281 593.3125 " fill-opacity="1" fill-rule="nonzero"/><path fill="rgb(95.289612%, 67.449951%, 44.309998%)" d="M 859.476562 627.023438 C 851.765625 602.851562 827.175781 626.496094 827.175781 626.496094 L 810.523438 675.996094 C 844.191406 675.542969 867.191406 651.214844 859.476562 627.023438 " fill-opacity="1" fill-rule="nonzero"/><path fill="rgb(89.019775%, 46.669006%, 28.239441%)" d="M 826.445312 638.394531 C 826.445312 638.394531 839.449219 623.167969 847.222656 630.277344 C 855.015625 637.382812 847.410156 664.1875 819.074219 664.078125 L 826.445312 638.394531 " fill-opacity="1" fill-rule="nonzero"/><path fill="rgb(100%, 100%, 100%)" d="M 741.847656 687.539062 C 742.875 687.507812 743.917969 687.460938 744.960938 687.382812 C 743.527344 697.726562 744.089844 708.957031 739.160156 718.464844 C 735.054688 726.398438 726.25 732.652344 717.496094 730.863281 C 710.171875 729.351562 704.808594 722.632812 702.722656 715.445312 C 700.625 708.257812 701.199219 700.605469 701.773438 693.136719 C 701.992188 690.445312 700.871094 680.289062 703.113281 678.5625 C 705.722656 676.570312 712.285156 681.640625 715.367188 682.855469 C 723.761719 686.136719 732.828125 687.769531 741.847656 687.539062 " fill-opacity="1" fill-rule="nonzero"/><path fill="rgb(83.918762%, 33.729553%, 16.859436%)" d="M 772.050781 749.375 C 768.722656 749.621094 765.441406 749.855469 762.128906 750.058594 C 758.816406 750.214844 751.644531 749.496094 748.304688 749.40625 C 741.632812 749.1875 738.816406 749.171875 732.269531 747.957031 C 725.722656 746.714844 719.300781 745.171875 712.925781 743.320312 C 711.339844 742.871094 709.738281 742.375 708.164062 741.875 C 706.578125 741.363281 705.007812 740.832031 703.4375 740.273438 C 700.328125 739.136719 697.21875 737.941406 694.230469 736.460938 L 713.671875 740.273438 L 733 744.148438 C 739.421875 745.359375 745.863281 746.449219 752.363281 747.195312 C 755.613281 747.585938 758.878906 747.925781 762.160156 748.207031 C 765.441406 748.519531 768.769531 748.796875 772.050781 749.375 " fill-opacity="1" fill-rule="nonzero"/><path fill="rgb(98.039246%, 98.039246%, 98.039246%)" d="M 690.019531 779.535156 L 704.074219 780.019531 L 720.558594 849.648438 L 803.585938 778.898438 L 825.792969 784.203125 L 676.070312 1074.746094 L 690.019531 779.535156 " fill-opacity="1" fill-rule="nonzero"/><path fill="rgb(98.81897%, 99.609375%, 98.429871%)" d="M 720.558594 849.648438 L 750.402344 910.519531 C 750.402344 910.519531 812.558594 826.003906 813.726562 788.761719 L 803.585938 778.898438 L 720.558594 849.648438 " fill-opacity="1" fill-rule="nonzero"/><path fill="rgb(98.81897%, 99.609375%, 98.429871%)" d="M 704.074219 780.019531 L 690.019531 779.535156 L 685.726562 904.8125 L 720.558594 849.648438 L 720.667969 846.507812 L 704.074219 780.019531 " fill-opacity="1" fill-rule="nonzero"/><path fill="rgb(27.449036%, 51.368713%, 78.819275%)" d="M 726.035156 861.503906 L 711.898438 861.003906 C 707.730469 860.863281 704.246094 857.753906 703.65625 853.617188 L 701.277344 837.28125 C 700.5 831.945312 704.730469 827.214844 710.109375 827.402344 L 730.125 828.085938 C 735.503906 828.273438 739.40625 833.285156 738.273438 838.558594 L 734.773438 854.6875 C 733.902344 858.765625 730.21875 861.640625 726.035156 861.503906 " fill-opacity="1" fill-rule="nonzero"/><path fill="rgb(76.078796%, 79.998779%, 78.819275%)" d="M 925.054688 847.515625 C 934.339844 868.613281 921.632812 894.621094 896.675781 905.621094 C 871.714844 916.601562 843.941406 908.417969 834.65625 887.308594 C 825.375 866.214844 838.09375 840.207031 863.054688 829.207031 C 888.011719 818.210938 915.773438 826.40625 925.054688 847.515625 " fill-opacity="1" fill-rule="nonzero"/><path fill="rgb(76.078796%, 79.998779%, 78.819275%)" d="M 1016.542969 1055.410156 C 1025.828125 1076.503906 1013.121094 1102.515625 988.160156 1113.511719 C 963.1875 1124.511719 935.429688 1116.3125 926.144531 1095.21875 C 916.859375 1074.109375 929.566406 1048.097656 954.539062 1037.101562 C 979.5 1026.117188 1007.257812 1034.300781 1016.542969 1055.410156 " fill-opacity="1" fill-rule="nonzero"/><path fill="rgb(76.078796%, 79.998779%, 78.819275%)" d="M 975.675781 1081.140625 L 972.71875 1082.445312 C 948.664062 1093.039062 920.328125 1082.011719 909.753906 1057.960938 L 853.910156 931.054688 C 843.320312 907.003906 854.328125 878.644531 878.386719 868.066406 L 881.34375 866.761719 C 905.382812 856.167969 933.71875 867.195312 944.308594 891.246094 L 1000.152344 1018.152344 C 1010.742188 1042.203125 999.714844 1070.5625 975.675781 1081.140625 " fill-opacity="1" fill-rule="nonzero"/><path fill="rgb(27.449036%, 51.368713%, 78.819275%)" d="M 678.664062 967.984375 L 676.378906 1065.460938 L 724.664062 974.9375 L 724.308594 852.835938 L 711.992188 855.652344 L 678.664062 967.984375 " fill-opacity="1" fill-rule="nonzero"/><path fill="rgb(92.158508%, 97.24884%, 96.078491%)" d="M 676.070312 1074.746094 L 811.050781 956.023438 L 788.582031 911.828125 L 875.757812 817.121094 L 825.792969 784.203125 L 676.070312 1074.746094 " fill-opacity="1" fill-rule="nonzero"/><path fill="rgb(92.158508%, 97.24884%, 96.078491%)" d="M 676.070312 1074.746094 L 690.019531 779.535156 L 625.621094 814.679688 L 666.316406 899.242188 L 638 923.339844 L 676.070312 1074.746094 " fill-opacity="1" fill-rule="nonzero"/><g clip-path="url(#id1)"><g clip-path="url(#id2)"><path fill="rgb(17.649841%, 17.649841%, 17.649841%)" d="M 627.613281 955.976562 C 626.414062 955.617188 625.589844 954.496094 625.652344 953.207031 C 628.621094 900.796875 636.617188 858.796875 649.398438 828.367188 C 659.832031 803.601562 673.488281 786.289062 690.003906 776.921875 C 718.710938 760.652344 745.691406 773.765625 747.976562 774.933594 C 749.234375 775.460938 758.878906 779.644531 768.613281 788.078125 C 782.296875 799.960938 789.480469 814.617188 789.375 830.484375 C 789.140625 867.492188 781.285156 874.757812 780.382812 875.457031 L 777.011719 871.164062 C 777.011719 871.164062 776.964844 871.179688 776.902344 871.242188 C 776.964844 871.179688 783.679688 864.378906 783.914062 830.453125 C 784.007812 816.078125 777.695312 803.261719 765.160156 792.324219 C 755.628906 784.015625 745.890625 779.988281 745.800781 779.941406 C 745.722656 779.910156 745.628906 779.878906 745.550781 779.832031 C 745.300781 779.707031 719.347656 766.53125 692.613281 781.730469 C 677.1875 790.503906 664.34375 806.929688 654.40625 830.578125 C 641.871094 860.414062 634.035156 901.777344 631.109375 953.5 C 631.03125 955.011719 629.742188 956.160156 628.234375 956.082031 C 628.015625 956.070312 627.8125 956.039062 627.613281 955.976562 " fill-opacity="1" fill-rule="nonzero"/></g></g><path fill="rgb(74.508667%, 77.648926%, 78.039551%)" d="M 647.066406 978.640625 C 644.109375 988.675781 633.566406 994.414062 623.523438 991.441406 C 613.492188 988.472656 607.753906 977.925781 610.722656 967.875 C 613.695312 957.839844 624.238281 952.101562 634.265625 955.074219 C 644.3125 958.042969 650.035156 968.589844 647.066406 978.640625 " fill-opacity="1" fill-rule="nonzero"/><path fill="rgb(17.649841%, 17.649841%, 17.649841%)" d="M 641.4375 976.960938 C 639.382812 983.898438 632.121094 987.851562 625.1875 985.796875 C 618.265625 983.757812 614.316406 976.476562 616.351562 969.539062 C 618.40625 962.617188 625.683594 958.667969 632.601562 960.71875 C 639.539062 962.757812 643.488281 970.039062 641.4375 976.960938 " fill-opacity="1" fill-rule="nonzero"/><g clip-path="url(#id3)"><g clip-path="url(#id4)"><path fill="rgb(17.649841%, 17.649841%, 17.649841%)" d="M 687.484375 969.089844 C 686.238281 969.042969 685.148438 968.15625 684.886719 966.894531 C 674.636719 915.421875 671.855469 872.765625 676.628906 840.097656 C 680.515625 813.496094 689.394531 793.320312 703.050781 780.097656 C 726.75 757.167969 756.15625 763.09375 758.675781 763.652344 C 760.011719 763.839844 770.417969 765.472656 781.941406 771.214844 C 798.160156 779.289062 808.78125 791.671875 812.667969 807.054688 C 821.6875 842.945312 815.902344 851.933594 815.21875 852.851562 L 810.863281 849.539062 C 810.863281 849.539062 810.832031 849.570312 810.785156 849.648438 C 810.847656 849.570312 815.640625 841.308594 807.367188 808.394531 C 803.851562 794.457031 794.519531 783.628906 779.652344 776.191406 C 768.347656 770.53125 757.914062 769.066406 757.804688 769.050781 C 757.726562 769.050781 757.632812 769.035156 757.554688 769.003906 C 757.277344 768.941406 728.847656 762.675781 706.78125 784.09375 C 694.046875 796.460938 685.710938 815.597656 682.023438 840.96875 C 677.359375 873 680.128906 915.015625 690.25 965.820312 C 690.546875 967.300781 689.597656 968.746094 688.105469 969.042969 C 687.902344 969.074219 687.683594 969.089844 687.484375 969.089844 " fill-opacity="1" fill-rule="nonzero"/></g></g><path fill="rgb(74.508667%, 77.648926%, 78.039551%)" d="M 788.96875 1007.371094 C 771.769531 1004.027344 761.148438 998.117188 757.398438 989.808594 C 754.273438 982.871094 757.167969 976.757812 757.820312 975.542969 L 777.335938 909.074219 C 787.664062 873.308594 798.378906 852.960938 808.3125 850.222656 C 811.550781 849.335938 813.960938 850.550781 814.875 851.421875 L 812.527344 854.003906 C 812.464844 853.957031 811.285156 852.976562 809.09375 853.648438 C 804.148438 855.140625 793.867188 864.457031 780.695312 910.054688 L 760.945312 977.101562 C 760.820312 977.316406 757.914062 982.5 760.621094 988.441406 C 763.839844 995.503906 773.882812 1000.871094 789.636719 1003.933594 L 788.96875 1007.371094 " fill-opacity="1" fill-rule="nonzero"/><path fill="rgb(74.508667%, 77.648926%, 78.039551%)" d="M 828.125 1008.710938 C 845.527344 1006.546875 856.523438 1001.382812 860.832031 993.371094 C 864.421875 986.652344 861.949219 980.351562 861.390625 979.089844 L 846.460938 911.4375 C 838.609375 875.050781 829.308594 854.019531 819.589844 850.613281 C 816.417969 849.507812 813.929688 850.550781 812.949219 851.359375 L 815.125 854.082031 C 815.1875 854.050781 816.433594 853.148438 818.578125 853.972656 C 823.414062 855.808594 833.023438 865.796875 843.054688 912.183594 L 858.15625 980.445312 C 858.265625 980.664062 860.816406 986.03125 857.71875 991.769531 C 854.019531 998.597656 843.628906 1003.265625 827.691406 1005.242188 L 828.125 1008.710938 " fill-opacity="1" fill-rule="nonzero"/><path fill="rgb(17.649841%, 17.649841%, 17.649841%)" d="M 796.292969 1012.910156 L 770.539062 1004.726562 C 768.613281 1004.121094 767.539062 1002.050781 768.144531 1000.125 C 768.753906 998.210938 770.835938 997.136719 772.75 997.742188 L 798.5 1005.910156 C 800.429688 1006.53125 801.503906 1008.601562 800.898438 1010.515625 C 800.273438 1012.445312 798.207031 1013.515625 796.292969 1012.910156 " fill-opacity="1" fill-rule="nonzero"/><path fill="rgb(17.649841%, 17.649841%, 17.649841%)" d="M 843.351562 1007.140625 L 817.148438 1013.703125 C 815.1875 1014.1875 813.183594 1012.988281 812.699219 1011.027344 C 812.203125 1009.066406 813.398438 1007.078125 815.359375 1006.578125 L 841.578125 1000.03125 C 843.523438 999.53125 845.527344 1000.730469 846.027344 1002.691406 C 846.507812 1004.648438 845.308594 1006.65625 843.351562 1007.140625 " fill-opacity="1" fill-rule="nonzero"/><path fill="rgb(39.608765%, 43.919373%, 51.759338%)" d="M 819.433594 786.179688 L 749.859375 751.226562 C 746.980469 749.777344 745.800781 746.230469 747.246094 743.335938 L 817.675781 603.035156 C 818.5 601.386719 820.007812 600.296875 821.671875 599.941406 C 822.949219 599.660156 824.316406 599.800781 825.558594 600.421875 L 895.136719 635.363281 C 898.011719 636.808594 899.195312 640.355469 897.75 643.25 L 827.316406 783.566406 C 825.871094 786.445312 822.324219 787.625 819.433594 786.179688 " fill-opacity="1" fill-rule="nonzero"/><path fill="rgb(28.62854%, 30.198669%, 34.899902%)" d="M 826.324219 789.632812 L 756.761719 754.695312 C 753.871094 753.246094 752.6875 749.699219 754.148438 746.808594 L 824.566406 606.503906 C 825.589844 604.484375 827.613281 603.300781 829.726562 603.269531 C 830.644531 603.253906 831.59375 603.441406 832.464844 603.875 L 902.023438 638.832031 C 904.917969 640.277344 906.097656 643.824219 904.636719 646.71875 L 834.222656 787.019531 C 832.777344 789.914062 829.214844 791.09375 826.324219 789.632812 " fill-opacity="1" fill-rule="nonzero"/><path fill="rgb(39.608765%, 43.919373%, 51.759338%)" d="M 893.144531 650.621094 C 891.261719 654.371094 886.691406 655.882812 882.929688 654 C 879.179688 652.117188 877.671875 647.542969 879.554688 643.792969 C 881.433594 640.027344 886.007812 638.519531 889.753906 640.402344 C 893.519531 642.285156 895.027344 646.859375 893.144531 650.621094 " fill-opacity="1" fill-rule="nonzero"/><path fill="rgb(91.369629%, 62.748718%, 41.178894%)" d="M 849.089844 728.589844 C 838.21875 719.910156 834.75 705.132812 831.953125 691.488281 C 823.570312 691.238281 813.429688 687.722656 806.011719 692.5 C 802.46875 694.769531 799.589844 697.914062 796.371094 700.621094 C 790.976562 705.179688 784.070312 708.679688 777.074219 707.792969 C 774.289062 707.433594 771.023438 705.335938 771.816406 702.644531 C 772.128906 701.617188 772.996094 700.855469 773.820312 700.152344 C 779.808594 695.066406 785.8125 689.980469 791.800781 684.894531 C 796.511719 680.894531 802.542969 673.351562 808.222656 671 C 817.378906 667.207031 833.367188 675.730469 842.683594 678.5 C 844.144531 678.933594 845.636719 679.386719 846.851562 680.304688 C 847.875 681.082031 848.652344 682.140625 849.398438 683.199219 C 854.160156 689.808594 858.902344 696.421875 863.644531 703.03125 C 866.738281 707.324219 869.878906 711.757812 871.109375 716.890625 C 872.335938 722.027344 871.203125 728.109375 866.972656 731.265625 C 860.644531 736.027344 855.292969 733.523438 849.089844 728.589844 " fill-opacity="1" fill-rule="nonzero"/><path fill="rgb(91.369629%, 62.748718%, 41.178894%)" d="M 866.429688 677.425781 C 864.828125 674.640625 863.195312 671.808594 860.800781 669.679688 C 858.871094 667.984375 856.554688 666.816406 854.253906 665.679688 C 849.867188 663.488281 845.464844 661.292969 841.066406 659.117188 C 837.441406 657.3125 833.769531 655.476562 829.789062 654.761719 C 826.601562 654.167969 823.320312 654.324219 820.085938 654.480469 C 803.679688 655.242188 787.289062 656.003906 770.898438 656.769531 C 770.679688 663.253906 776.109375 668.902344 782.265625 670.910156 C 788.441406 672.914062 795.15625 672.042969 801.519531 670.722656 C 805.125 669.976562 808.8125 669.089844 812.480469 669.570312 C 815.886719 670.023438 819.011719 671.640625 822.0625 673.226562 C 827.269531 675.933594 832.464844 678.625 837.675781 681.332031 C 839.121094 682.09375 840.613281 682.871094 841.734375 684.070312 C 843.132812 685.59375 843.816406 687.632812 844.5 689.589844 C 848.1875 700.246094 852.882812 710.5625 858.542969 720.316406 C 861.546875 725.496094 864.949219 730.675781 869.910156 734.003906 C 881.3125 741.65625 897.734375 732.621094 891.980469 718.820312 C 889.367188 712.582031 883.785156 707.230469 880.238281 701.507812 C 875.371094 693.652344 871.015625 685.4375 866.429688 677.425781 " fill-opacity="1" fill-rule="nonzero"/><path fill="rgb(91.369629%, 62.748718%, 41.178894%)" d="M 879.957031 668.886719 C 878.03125 664.949219 876.054688 660.9375 873.023438 657.777344 C 867.484375 652.023438 859.320312 649.890625 851.6875 647.542969 C 833.335938 641.894531 815.792969 633.667969 799.730469 623.167969 C 796.699219 621.191406 792.28125 619.261719 789.902344 621.984375 C 788.734375 623.304688 788.65625 625.25 788.875 626.992188 C 790.570312 639.84375 804.738281 646.8125 817.320312 649.921875 C 824.300781 651.664062 831.828125 653.144531 836.945312 658.230469 C 839.726562 661 841.515625 664.609375 843.226562 668.15625 C 853.398438 689.203125 862.945312 710.5625 871.792969 732.199219 C 871.980469 732.621094 894.542969 725.976562 896.582031 725.402344 C 906.238281 722.664062 905.074219 720.097656 901.046875 711.585938 C 894.265625 697.246094 886.925781 683.136719 879.957031 668.886719 " fill-opacity="1" fill-rule="nonzero"/><path fill="rgb(91.369629%, 62.748718%, 41.178894%)" d="M 862.789062 635.066406 C 862.632812 634.382812 862.449219 633.683594 861.964844 633.183594 C 861.328125 632.515625 860.332031 632.40625 859.414062 632.3125 C 848.996094 631.222656 838.824219 627.925781 829.742188 622.699219 C 822.386719 618.46875 815.359375 612.851562 806.914062 612.058594 C 805.964844 618.1875 809.324219 624.378906 814.066406 628.394531 C 818.796875 632.421875 824.734375 634.695312 830.597656 636.777344 C 833.664062 637.882812 836.804688 638.988281 839.386719 640.960938 C 847.90625 647.496094 847.316406 660.222656 850.675781 670.425781 C 852.246094 675.265625 855.976562 680.382812 861.03125 679.992188 C 864.359375 679.730469 867.097656 677.007812 868.371094 673.925781 C 872.960938 662.773438 865.339844 646.113281 862.789062 635.066406 " fill-opacity="1" fill-rule="nonzero"/><path fill="rgb(81.568909%, 86.268616%, 85.879517%)" d="M 943.886719 1070.359375 C 935.429688 1044.816406 949.5625 1017.15625 975.457031 1008.585938 C 1001.347656 1000.015625 1029.199219 1013.765625 1037.644531 1039.308594 C 1046.105469 1064.851562 1031.96875 1092.511719 1006.078125 1101.082031 C 980.183594 1109.65625 952.347656 1095.902344 943.886719 1070.359375 " fill-opacity="1" fill-rule="nonzero"/><g clip-path="url(#id5)"><path fill="rgb(81.568909%, 86.268616%, 85.879517%)" d="M 831.71875 730.113281 L 925.492188 699.050781 L 1041.6875 1050.121094 L 947.914062 1081.1875 L 831.71875 730.113281 " fill-opacity="1" fill-rule="nonzero"/></g></svg>