<svg width="30" height="30" viewBox="0 0 30 30" fill="none" xmlns="http://www.w3.org/2000/svg">
<rect width="30" height="30" rx="5" fill="#E6ECFF"/>
<path d="M14.7178 21.5968C14.8049 21.7211 14.9215 21.8228 15.0576 21.8931C15.1936 21.9633 15.345 22 15.4987 22C15.6524 22 15.8038 21.9633 15.9398 21.8931C16.0759 21.8228 16.1925 21.7211 16.2797 21.5968L24.8303 9.4643C24.9293 9.32436 24.9874 9.16046 24.9982 8.99039C25.009 8.82033 24.9721 8.6506 24.8916 8.49967C24.8111 8.34873 24.69 8.22235 24.5416 8.13426C24.3931 8.04617 24.2228 7.99973 24.0494 8H6.94804C6.77498 8.0007 6.60539 8.04773 6.4575 8.13604C6.30961 8.22434 6.18903 8.35057 6.10872 8.50116C6.0284 8.65175 5.9914 8.82099 6.00168 8.9907C6.01197 9.1604 6.06915 9.32413 6.16708 9.4643L14.7178 21.5968Z" fill="#3353D0"/>
</svg>
