<svg width="30" height="30" viewBox="0 0 30 30" fill="none" xmlns="http://www.w3.org/2000/svg">
<rect width="30" height="30" rx="5" fill="#E6ECFF"/>
<path d="M22.0702 9.00006H19.9452V10.6154C19.9452 10.771 19.915 10.925 19.8563 11.0688C19.7975 11.2125 19.7114 11.3431 19.6029 11.4531C19.4944 11.5631 19.3655 11.6503 19.2237 11.7099C19.082 11.7694 18.93 11.8 18.7765 11.8C18.623 11.8 18.471 11.7694 18.3292 11.7099C18.1874 11.6503 18.0586 11.5631 17.9501 11.4531C17.8416 11.3431 17.7555 11.2125 17.6967 11.0688C17.638 10.925 17.6078 10.771 17.6078 10.6154V9.00006H11.4188V10.6154C11.4188 10.9296 11.2957 11.2309 11.0765 11.4531C10.8573 11.6752 10.56 11.8 10.2501 11.8C9.9401 11.8 9.64283 11.6752 9.42365 11.4531C9.20447 11.2309 9.08134 10.9296 9.08134 10.6154V9.00006H6.95637C6.82995 8.9986 6.70452 9.02286 6.58751 9.07139C6.47049 9.11992 6.36427 9.19174 6.27511 9.28261C6.18596 9.37347 6.11569 9.48154 6.06846 9.60041C6.02123 9.71928 5.998 9.84654 6.00014 9.97467V22.0254C5.99803 22.1513 6.0204 22.2763 6.06598 22.3934C6.11156 22.5105 6.17946 22.6174 6.26579 22.7079C6.35212 22.7984 6.4552 22.8708 6.56913 22.9209C6.68307 22.971 6.80562 22.9979 6.92981 23H22.0702C22.1944 22.9979 22.3169 22.971 22.4309 22.9209C22.5448 22.8708 22.6479 22.7984 22.7342 22.7079C22.8205 22.6174 22.8884 22.5105 22.934 22.3934C22.9796 22.2763 23.002 22.1513 22.9999 22.0254V9.97467C23.002 9.8488 22.9796 9.72374 22.934 9.60664C22.8884 9.48953 22.8205 9.38268 22.7342 9.29217C22.6479 9.20167 22.5448 9.12929 22.4309 9.07917C22.3169 9.02905 22.1944 9.00217 22.0702 9.00006ZM10.2501 19.7692H9.18759V18.6923H10.2501V19.7692ZM10.2501 17.077H9.18759V16H10.2501V17.077ZM10.2501 14.3847H9.18759V13.3077H10.2501V14.3847ZM13.4375 19.7692H12.375V18.6923H13.4375V19.7692ZM13.4375 17.077H12.375V16H13.4375V17.077ZM13.4375 14.3847H12.375V13.3077H13.4375V14.3847ZM16.625 19.7692H15.5625V18.6923H16.625V19.7692ZM16.625 17.077H15.5625V16H16.625V17.077ZM16.625 14.3847H15.5625V13.3077H16.625V14.3847ZM19.8124 19.7692H18.7499V18.6923H19.8124V19.7692ZM19.8124 17.077H18.7499V16H19.8124V17.077ZM19.8124 14.3847H18.7499V13.3077H19.8124V14.3847Z" fill="#3353D0"/>
<path d="M10.5 12C10.6326 12 10.7598 11.9342 10.8536 11.8169C10.9473 11.6997 11 11.5408 11 11.375V7.625C11 7.45924 10.9473 7.30027 10.8536 7.18306C10.7598 7.06585 10.6326 7 10.5 7C10.3674 7 10.2402 7.06585 10.1464 7.18306C10.0527 7.30027 10 7.45924 10 7.625V11.375C10 11.5408 10.0527 11.6997 10.1464 11.8169C10.2402 11.9342 10.3674 12 10.5 12Z" fill="#3353D0"/>
<path d="M18.5 12C18.6326 12 18.7598 11.9342 18.8536 11.8169C18.9473 11.6997 19 11.5408 19 11.375V7.625C19 7.45924 18.9473 7.30027 18.8536 7.18306C18.7598 7.06585 18.6326 7 18.5 7C18.3674 7 18.2402 7.06585 18.1464 7.18306C18.0527 7.30027 18 7.45924 18 7.625V11.375C18 11.5408 18.0527 11.6997 18.1464 11.8169C18.2402 11.9342 18.3674 12 18.5 12Z" fill="#3353D0"/>
</svg>
