<svg width="30" height="30" viewBox="0 0 30 30" fill="none" xmlns="http://www.w3.org/2000/svg">
<rect width="30" height="30" rx="5" fill="#E6ECFF"/>
<path fill-rule="evenodd" clip-rule="evenodd" d="M10 5C8.67392 5 7.40215 5.52678 6.46447 6.46447C5.52678 7.40215 5 8.67392 5 10V20C5 21.3261 5.52678 22.5979 6.46447 23.5355C7.40215 24.4732 8.67392 25 10 25H20C21.3261 25 22.5979 24.4732 23.5355 23.5355C24.4732 22.5979 25 21.3261 25 20V10C25 8.67392 24.4732 7.40215 23.5355 6.46447C22.5979 5.52678 21.3261 5 20 5H10ZM18.73 13.684C18.8198 13.5881 18.8899 13.4755 18.9362 13.3526C18.9825 13.2296 19.0041 13.0988 18.9998 12.9675C18.9956 12.8362 18.9655 12.707 18.9113 12.5873C18.8571 12.4677 18.7799 12.3598 18.684 12.27C18.5881 12.1802 18.4755 12.1101 18.3526 12.0638C18.2296 12.0175 18.0988 11.9959 17.9675 12.0002C17.8362 12.0044 17.707 12.0345 17.5873 12.0887C17.4677 12.1429 17.3598 12.2201 17.27 12.316L14.187 15.606L12.664 14.253C12.4645 14.0871 12.2083 14.0053 11.9495 14.0248C11.6907 14.0443 11.4497 14.1637 11.2773 14.3576C11.1049 14.5516 11.0147 14.8049 11.0256 15.0642C11.0366 15.3234 11.1479 15.5683 11.336 15.747L13.586 17.747C13.7807 17.9199 14.0352 18.0101 14.2953 17.9983C14.5554 17.9866 14.8007 17.8738 14.979 17.684L18.729 13.684H18.73Z" fill="#3353D0"/>
</svg>
