<svg width="30" height="30" viewBox="0 0 30 30" fill="none" xmlns="http://www.w3.org/2000/svg">
<rect width="30" height="30" rx="5" fill="#E6ECFF"/>
<path d="M10 6C12.7625 6 15 8.30414 15 11.1466C15 8.30414 17.2375 6 20 6C22.7625 6 25 8.30414 25 11.1466C25 15.4306 20.9575 16.9417 15.49 23.7609C15.4298 23.8358 15.3548 23.896 15.2701 23.9373C15.1855 23.9786 15.0933 24 15 24C14.9067 24 14.8145 23.9786 14.7299 23.9373C14.6452 23.896 14.5702 23.8358 14.51 23.7609C9.0425 16.9417 5 15.4306 5 11.1466C5 8.30414 7.2375 6 10 6Z" fill="#3353D0"/>
</svg>
