<svg width="30" height="30" viewBox="0 0 30 30" fill="none" xmlns="http://www.w3.org/2000/svg">
<rect width="30" height="30" rx="5" fill="#E6ECFF"/>
<path d="M14.7563 4.13977L8.38125 6.63018C7.5525 6.96223 7 7.7813 7 8.71105V13.9243C7 19.5139 10.6231 24.7271 15.5 26C20.3769 24.7271 24 19.5139 24 13.9243V8.71105C23.9992 8.26063 23.8666 7.82116 23.6198 7.45133C23.373 7.0815 23.0238 6.79889 22.6188 6.64124L16.2437 4.15084C15.7656 3.95161 15.2344 3.95161 14.7563 4.13977V4.13977ZM13.6194 18.0528L11.3669 15.7063C11.2685 15.6038 11.1905 15.4822 11.1372 15.3483C11.084 15.2144 11.0566 15.0709 11.0566 14.926C11.0566 14.7811 11.084 14.6376 11.1372 14.5037C11.1905 14.3698 11.2685 14.2481 11.3669 14.1457C11.4652 14.0432 11.582 13.9619 11.7105 13.9064C11.8391 13.851 11.9768 13.8224 12.1159 13.8224C12.2551 13.8224 12.3928 13.851 12.5213 13.9064C12.6499 13.9619 12.7666 14.0432 12.865 14.1457L14.3631 15.7063L18.1244 11.7881C18.2227 11.6856 18.3395 11.6043 18.468 11.5489C18.5966 11.4934 18.7343 11.4649 18.8734 11.4649C19.0126 11.4649 19.1503 11.4934 19.2788 11.5489C19.4074 11.6043 19.5241 11.6856 19.6225 11.7881C19.7209 11.8906 19.7989 12.0122 19.8521 12.1461C19.9054 12.28 19.9328 12.4235 19.9328 12.5684C19.9328 12.7133 19.9054 12.8568 19.8521 12.9907C19.7989 13.1246 19.7209 13.2463 19.6225 13.3487L15.1175 18.0418C14.7138 18.4845 14.0337 18.4845 13.6194 18.0528V18.0528Z" fill="#3353D0"/>
</svg>
