<svg width="30" height="30" viewBox="0 0 30 30" fill="none" xmlns="http://www.w3.org/2000/svg">
<rect width="30" height="30" rx="5" fill="#FFFAE9"/>
<path fill-rule="evenodd" clip-rule="evenodd" d="M15 7C14.31 7 13.157 7.265 12.072 7.56C10.962 7.86 9.843 8.215 9.185 8.43C8.9099 8.52085 8.666 8.68747 8.48132 8.9107C8.29665 9.13394 8.17869 9.40474 8.14101 9.692C7.54501 14.169 8.928 17.487 10.606 19.682C11.3176 20.621 12.166 21.4478 13.123 22.135C13.509 22.408 13.867 22.617 14.171 22.76C14.451 22.892 14.752 23 15 23C15.248 23 15.548 22.892 15.829 22.76C16.1955 22.5819 16.5461 22.3728 16.877 22.135C17.834 21.4479 18.6824 20.621 19.394 19.682C21.072 17.487 22.455 14.169 21.859 9.692C21.8214 9.4046 21.7035 9.13364 21.5188 8.91023C21.3341 8.68683 21.0902 8.52003 20.815 8.429C19.8598 8.11581 18.8972 7.82573 17.928 7.559C16.843 7.266 15.69 7 15 7ZM17.146 12.146C17.2399 12.0521 17.3672 11.9994 17.5 11.9994C17.6328 11.9994 17.7601 12.0521 17.854 12.146C17.9479 12.2399 18.0006 12.3672 18.0006 12.5C18.0006 12.6328 17.9479 12.7601 17.854 12.854L14.854 15.854C14.8076 15.9006 14.7524 15.9375 14.6916 15.9627C14.6309 15.9879 14.5658 16.0009 14.5 16.0009C14.4342 16.0009 14.3691 15.9879 14.3084 15.9627C14.2476 15.9375 14.1924 15.9006 14.146 15.854L12.646 14.354C12.5995 14.3075 12.5626 14.2523 12.5375 14.1916C12.5123 14.1308 12.4994 14.0657 12.4994 14C12.4994 13.9343 12.5123 13.8692 12.5375 13.8084C12.5626 13.7477 12.5995 13.6925 12.646 13.646C12.6925 13.5995 12.7477 13.5626 12.8084 13.5375C12.8692 13.5123 12.9343 13.4994 13 13.4994C13.0657 13.4994 13.1308 13.5123 13.1916 13.5375C13.2523 13.5626 13.3075 13.5995 13.354 13.646L14.5 14.793L17.146 12.146V12.146Z" fill="#FFD012"/>
</svg>
