<svg width="30" height="30" viewBox="0 0 30 30" fill="none" xmlns="http://www.w3.org/2000/svg">
<rect width="30" height="30" rx="5" fill="#E6ECFF"/>
<path d="M15 5C14.1129 5 12.6304 5.34781 11.2354 5.735C9.80829 6.12875 8.36958 6.59469 7.52358 6.87687C7.16987 6.99612 6.85628 7.2148 6.61884 7.5078C6.3814 7.80079 6.22975 8.15622 6.18129 8.53325C5.41501 14.4093 7.19315 18.7642 9.35058 21.6451C10.2655 22.8775 11.3563 23.9628 12.5867 24.8647C13.083 25.223 13.5433 25.4973 13.9341 25.685C14.2941 25.8583 14.6811 26 15 26C15.3189 26 15.7046 25.8583 16.0659 25.685C16.537 25.4512 16.9878 25.1768 17.4133 24.8647C18.6437 23.9628 19.7346 22.8775 20.6494 21.6451C22.8069 18.7642 24.585 14.4093 23.8187 8.53325C23.7703 8.15604 23.6187 7.8004 23.3813 7.50718C23.1439 7.21396 22.8302 6.99504 22.4764 6.87556C21.2483 6.4645 20.0107 6.08377 18.7646 5.73369C17.3696 5.34913 15.8871 5 15 5ZM13.5266 11.7541L15 13.2596L16.4734 11.7541C16.5941 11.6309 16.7579 11.5617 16.9286 11.5617C17.0993 11.5617 17.263 11.6309 17.3837 11.7541C17.5044 11.8774 17.5722 12.0445 17.5722 12.2188C17.5722 12.393 17.5044 12.5601 17.3837 12.6834L15.909 14.1875L17.3837 15.6916C17.5044 15.8149 17.5722 15.982 17.5722 16.1562C17.5722 16.3305 17.5044 16.4976 17.3837 16.6209C17.263 16.7441 17.0993 16.8133 16.9286 16.8133C16.7579 16.8133 16.5941 16.7441 16.4734 16.6209L15 15.1154L13.5266 16.6209C13.4668 16.6819 13.3958 16.7303 13.3178 16.7633C13.2397 16.7963 13.156 16.8133 13.0714 16.8133C12.9869 16.8133 12.9032 16.7963 12.8251 16.7633C12.747 16.7303 12.6761 16.6819 12.6163 16.6209C12.5565 16.5599 12.5091 16.4874 12.4768 16.4077C12.4444 16.328 12.4278 16.2425 12.4278 16.1562C12.4278 16.07 12.4444 15.9845 12.4768 15.9048C12.5091 15.8251 12.5565 15.7526 12.6163 15.6916L14.091 14.1875L12.6163 12.6834C12.5565 12.6224 12.5091 12.5499 12.4768 12.4702C12.4444 12.3905 12.4278 12.305 12.4278 12.2188C12.4278 12.1325 12.4444 12.047 12.4768 11.9673C12.5091 11.8876 12.5565 11.8151 12.6163 11.7541C12.6761 11.6931 12.747 11.6447 12.8251 11.6117C12.9032 11.5787 12.9869 11.5617 13.0714 11.5617C13.156 11.5617 13.2397 11.5787 13.3178 11.6117C13.3958 11.6447 13.4668 11.6931 13.5266 11.7541V11.7541Z" fill="#3353D0"/>
</svg>
