<svg width="40" height="40" viewBox="0 0 40 40" fill="none" xmlns="http://www.w3.org/2000/svg">
<g filter="url(#filter0_d_2_122)">
<rect x="2" y="2" width="30" height="30" rx="5" fill="#E6ECFF"/>
<path fill-rule="evenodd" clip-rule="evenodd" d="M17.5 8C16.6621 8 15.2621 8.31469 13.9446 8.665C12.5967 9.02125 11.2379 9.44281 10.4389 9.69812C10.1049 9.80601 9.80871 10.0039 9.58446 10.269C9.36022 10.5341 9.21698 10.8556 9.17122 11.1967C8.44751 16.5132 10.1269 20.4533 12.1644 23.0599C13.0285 24.1749 14.0588 25.1568 15.2208 25.9728C15.6895 26.297 16.1242 26.5452 16.4934 26.715C16.8334 26.8718 17.1989 27 17.5 27C17.8011 27 18.1654 26.8718 18.5066 26.715C18.9517 26.5035 19.3774 26.2552 19.7792 25.9728C20.9413 25.1568 21.9715 24.1749 22.8356 23.0599C24.8731 20.4533 26.5525 16.5132 25.8288 11.1967C25.7831 10.8555 25.6399 10.5337 25.4157 10.2684C25.1914 10.0031 24.8952 9.80504 24.5611 9.69694C23.4012 9.32503 22.2323 8.98055 21.0554 8.66381C19.7379 8.31588 18.3379 8 17.5 8ZM20.1059 14.1109C20.2199 13.9994 20.3745 13.9367 20.5357 13.9367C20.6969 13.9367 20.8516 13.9994 20.9656 14.1109C21.0796 14.2224 21.1436 14.3736 21.1436 14.5312C21.1436 14.6889 21.0796 14.8401 20.9656 14.9516L17.3227 18.5141C17.2663 18.5694 17.1993 18.6133 17.1256 18.6432C17.0518 18.6732 16.9727 18.6886 16.8929 18.6886C16.813 18.6886 16.7339 18.6732 16.6602 18.6432C16.5864 18.6133 16.5194 18.5694 16.463 18.5141L14.6416 16.7329C14.5851 16.6777 14.5403 16.6121 14.5098 16.54C14.4792 16.4679 14.4635 16.3906 14.4635 16.3125C14.4635 16.2344 14.4792 16.1571 14.5098 16.085C14.5403 16.0129 14.5851 15.9473 14.6416 15.8921C14.698 15.8369 14.765 15.7931 14.8388 15.7633C14.9125 15.7334 14.9916 15.718 15.0714 15.718C15.1513 15.718 15.2303 15.7334 15.3041 15.7633C15.3778 15.7931 15.4448 15.8369 15.5013 15.8921L16.8929 17.2542L20.1059 14.1109V14.1109Z" fill="#3353D0"/>
<rect x="2.5" y="2.5" width="29" height="29" rx="4.5" stroke="white"/>
</g>
<defs>
<filter id="filter0_d_2_122" x="0" y="0" width="40" height="40" filterUnits="userSpaceOnUse" color-interpolation-filters="sRGB">
<feFlood flood-opacity="0" result="BackgroundImageFix"/>
<feColorMatrix in="SourceAlpha" type="matrix" values="0 0 0 0 0 0 0 0 0 0 0 0 0 0 0 0 0 0 127 0" result="hardAlpha"/>
<feOffset dx="3" dy="3"/>
<feGaussianBlur stdDeviation="2.5"/>
<feComposite in2="hardAlpha" operator="out"/>
<feColorMatrix type="matrix" values="0 0 0 0 0.695833 0 0 0 0 0.768833 0 0 0 0 1 0 0 0 0.7 0"/>
<feBlend mode="normal" in2="BackgroundImageFix" result="effect1_dropShadow_2_122"/>
<feBlend mode="normal" in="SourceGraphic" in2="effect1_dropShadow_2_122" result="shape"/>
</filter>
</defs>
</svg>
