<svg width="30" height="30" viewBox="0 0 30 30" fill="none" xmlns="http://www.w3.org/2000/svg">
<rect width="30" height="30" rx="5" fill="#FFFAE9"/>
<path d="M22.4829 12.6341L17.6864 11.9041L15.5422 7.35214C15.4837 7.22751 15.3873 7.12662 15.2683 7.06529C14.9698 6.91099 14.6071 7.03957 14.4579 7.35214L12.3137 11.9041L7.51721 12.6341C7.38497 12.6538 7.26407 12.7191 7.1715 12.818C7.05959 12.9385 6.99793 13.1005 7.00005 13.2686C7.00218 13.4366 7.06792 13.5969 7.18284 13.7142L10.6532 17.2572L9.83328 22.2602C9.81405 22.3766 9.82635 22.4963 9.86878 22.6057C9.91121 22.7151 9.98207 22.8099 10.0733 22.8793C10.1646 22.9488 10.2726 22.99 10.3851 22.9984C10.4976 23.0068 10.6101 22.982 10.7098 22.9269L15 20.5648L19.2902 22.9269C19.4074 22.9922 19.5434 23.0139 19.6737 22.9902C20.0024 22.9308 20.2235 22.6044 20.1668 22.2602L19.3469 17.2572L22.8172 13.7142C22.9117 13.6172 22.974 13.4906 22.9929 13.3522C23.0439 13.006 22.8135 12.6855 22.4829 12.6341V12.6341Z" fill="#FFD012"/>
</svg>
