<svg width="40" height="40" viewBox="0 0 40 40" fill="none" xmlns="http://www.w3.org/2000/svg">
<g filter="url(#filter0_d_2_121)">
<rect x="2" y="2" width="30" height="30" rx="5" fill="#E6ECFF"/>
<rect x="8" y="8" width="18" height="17.0526" rx="3" fill="#3353D0"/>
<path d="M23.0202 13.6173C23.1108 13.5181 23.1602 13.3868 23.1578 13.2512C23.1555 13.1155 23.1016 12.9861 23.0076 12.8902C22.9136 12.7943 22.7867 12.7393 22.6538 12.7369C22.5208 12.7345 22.3922 12.7849 22.2949 12.8774L18.3812 16.8703L15.836 14.2735C15.7397 14.1754 15.6093 14.1204 15.4733 14.1204C15.3373 14.1204 15.2069 14.1754 15.1107 14.2735L11.0054 18.4618C10.955 18.5098 10.9146 18.5676 10.8865 18.6318C10.8585 18.696 10.8434 18.7653 10.8422 18.8356C10.841 18.9059 10.8536 18.9758 10.8794 19.041C10.9053 19.1061 10.9437 19.1654 10.9924 19.2151C11.0411 19.2648 11.0992 19.304 11.1631 19.3303C11.227 19.3567 11.2954 19.3696 11.3643 19.3683C11.4332 19.3671 11.5012 19.3517 11.5641 19.3231C11.6271 19.2945 11.6837 19.2532 11.7307 19.2018L15.4733 15.3834L18.0186 17.9802C18.1148 18.0782 18.2452 18.1333 18.3812 18.1333C18.5172 18.1333 18.6476 18.0782 18.7439 17.9802L23.0202 13.6173V13.6173Z" fill="white"/>
<rect x="2.5" y="2.5" width="29" height="29" rx="4.5" stroke="white"/>
</g>
<defs>
<filter id="filter0_d_2_121" x="0" y="0" width="40" height="40" filterUnits="userSpaceOnUse" color-interpolation-filters="sRGB">
<feFlood flood-opacity="0" result="BackgroundImageFix"/>
<feColorMatrix in="SourceAlpha" type="matrix" values="0 0 0 0 0 0 0 0 0 0 0 0 0 0 0 0 0 0 127 0" result="hardAlpha"/>
<feOffset dx="3" dy="3"/>
<feGaussianBlur stdDeviation="2.5"/>
<feComposite in2="hardAlpha" operator="out"/>
<feColorMatrix type="matrix" values="0 0 0 0 0.695833 0 0 0 0 0.768833 0 0 0 0 1 0 0 0 0.7 0"/>
<feBlend mode="normal" in2="BackgroundImageFix" result="effect1_dropShadow_2_121"/>
<feBlend mode="normal" in="SourceGraphic" in2="effect1_dropShadow_2_121" result="shape"/>
</filter>
</defs>
</svg>
