<svg width="30" height="30" viewBox="0 0 30 30" fill="none" xmlns="http://www.w3.org/2000/svg">
<rect width="30" height="30" rx="5" fill="#E6ECFF"/>
<path d="M21.6667 6H8.33333C7.44928 6 6.60143 6.25022 5.97631 6.69562C5.35119 7.14102 5 7.74511 5 8.375V22.625C5 23.2549 5.35119 23.859 5.97631 24.3044C6.60143 24.7498 7.44928 25 8.33333 25H21.6667C22.5507 25 23.3986 24.7498 24.0237 24.3044C24.6488 23.859 25 23.2549 25 22.625V8.375C25 7.74511 24.6488 7.14102 24.0237 6.69562C23.3986 6.25022 22.5507 6 21.6667 6V6ZM18.3333 19.6562V12.5312C18.3333 12.3738 18.4211 12.2228 18.5774 12.1114C18.7337 12.0001 18.9457 11.9375 19.1667 11.9375H20.8333C21.0543 11.9375 21.2663 12.0001 21.4226 12.1114C21.5789 12.2228 21.6667 12.3738 21.6667 12.5312V19.6562C21.6667 19.8137 21.5789 19.9647 21.4226 20.0761C21.2663 20.1874 21.0543 20.25 20.8333 20.25H19.1667C18.9457 20.25 18.7337 20.1874 18.5774 20.0761C18.4211 19.9647 18.3333 19.8137 18.3333 19.6562ZM14.1667 20.25C13.9457 20.25 13.7337 20.1874 13.5774 20.0761C13.4211 19.9647 13.3333 19.8137 13.3333 19.6562V14.9062C13.3333 14.7488 13.4211 14.5978 13.5774 14.4864C13.7337 14.3751 13.9457 14.3125 14.1667 14.3125H15.8333C16.0543 14.3125 16.2663 14.3751 16.4226 14.4864C16.5789 14.5978 16.6667 14.7488 16.6667 14.9062V19.6562C16.6667 19.8137 16.5789 19.9647 16.4226 20.0761C16.2663 20.1874 16.0543 20.25 15.8333 20.25H14.1667ZM9.16667 20.25C8.94565 20.25 8.73369 20.1874 8.57741 20.0761C8.42113 19.9647 8.33333 19.8137 8.33333 19.6562V17.2812C8.33333 17.1238 8.42113 16.9728 8.57741 16.8614C8.73369 16.7501 8.94565 16.6875 9.16667 16.6875H10.8333C11.0543 16.6875 11.2663 16.7501 11.4226 16.8614C11.5789 16.9728 11.6667 17.1238 11.6667 17.2812V19.6562C11.6667 19.8137 11.5789 19.9647 11.4226 20.0761C11.2663 20.1874 11.0543 20.25 10.8333 20.25H9.16667Z" fill="#3353D0"/>
</svg>
