<svg width="30" height="30" viewBox="0 0 30 30" fill="none" xmlns="http://www.w3.org/2000/svg">
<rect width="30" height="30" rx="5" fill="#E6ECFF"/>
<path d="M22.7802 15H25C25 9.29937 20.7014 5 15 5V7.22247C19.5083 7.22247 22.7802 10.4928 22.7802 15Z" fill="#3353D0"/>
<path d="M15.6664 11.135C17.9095 11.135 18.8663 12.0917 18.8663 14.3346H20.9995C20.9995 10.8951 19.1062 9.00197 15.6664 9.00197V11.135ZM19.3164 16.9402C19.1114 16.7539 18.8421 16.6546 18.5653 16.6631C18.2884 16.6717 18.0258 16.7875 17.8327 16.9861L15.2803 19.6108C14.6659 19.4935 13.4308 19.1085 12.1594 17.8403C10.888 16.568 10.503 15.3297 10.3888 14.7197L13.0116 12.1664C13.2105 11.9735 13.3264 11.7108 13.335 11.4339C13.3435 11.157 13.244 10.8876 13.0575 10.6828L9.11636 6.3495C8.92975 6.14403 8.67038 6.01941 8.39336 6.00208C8.11633 5.98476 7.84346 6.0761 7.6327 6.25671L5.31815 8.24153C5.13375 8.42659 5.02368 8.67289 5.00883 8.93371C4.99283 9.20034 4.68778 15.5164 9.58567 20.416C13.8585 24.6875 19.2108 25 20.6848 25C20.9003 25 21.0325 24.9936 21.0677 24.9915C21.3285 24.9769 21.5747 24.8663 21.7589 24.6811L23.7428 22.3657C23.9236 22.155 24.0151 21.8823 23.998 21.6053C23.9808 21.3283 23.8564 21.0689 23.6511 20.8821L19.3164 16.9402V16.9402Z" fill="#3353D0"/>
</svg>
