<svg width="30" height="30" viewBox="0 0 30 30" fill="none" xmlns="http://www.w3.org/2000/svg">
<rect width="30" height="30" rx="5" fill="#E6ECFF"/>
<path d="M8.33333 7C7.44928 7 6.60143 7.33714 5.97631 7.93726C5.35119 8.53737 5 9.35131 5 10.2V10.5216L15 15.6912L25 10.5232V10.2C25 9.35131 24.6488 8.53737 24.0237 7.93726C23.3986 7.33714 22.5507 7 21.6667 7H8.33333ZM25 12.3392L15.395 17.304C15.2736 17.3667 15.1379 17.3996 15 17.3996C14.8621 17.3996 14.7264 17.3667 14.605 17.304L5 12.3392V19.8C5 20.6487 5.35119 21.4626 5.97631 22.0627C6.60143 22.6629 7.44928 23 8.33333 23H21.6667C22.5507 23 23.3986 22.6629 24.0237 22.0627C24.6488 21.4626 25 20.6487 25 19.8V12.3392Z" fill="#3353D0"/>
</svg>
