<svg width="30" height="30" viewBox="0 0 30 30" fill="none" xmlns="http://www.w3.org/2000/svg">
<rect width="30" height="30" rx="5" fill="#E6ECFF"/>
<path d="M22.0123 7.94228C20.3794 6.29622 18.2242 5.27231 15.9182 5.04708C13.6123 4.82185 11.3001 5.40942 9.38039 6.70848C7.46065 8.00755 6.05362 9.9367 5.40188 12.1634C4.75014 14.39 4.89453 16.7746 5.81015 18.9061C5.90559 19.1042 5.9369 19.3272 5.89972 19.544L5.02393 23.76C4.99019 23.9217 4.99708 24.0892 5.04398 24.2475C5.09088 24.4058 5.17633 24.55 5.29264 24.6671C5.38799 24.7619 5.50151 24.8363 5.62637 24.886C5.75123 24.9357 5.88484 24.9595 6.01915 24.9561H6.21819L10.4777 24.0989C10.6942 24.0729 10.9138 24.1038 11.1147 24.1886C13.243 25.1056 15.624 25.2502 17.8473 24.5975C20.0707 23.9448 21.9969 22.5357 23.2941 20.6131C24.5912 18.6904 25.1779 16.3748 24.953 14.0654C24.7281 11.756 23.7057 9.5976 22.0621 7.96221L22.0123 7.94228ZM10.9953 15.9857C10.7984 15.9857 10.606 15.9273 10.4423 15.8177C10.2787 15.7082 10.1511 15.5526 10.0758 15.3704C10.0005 15.1883 9.98076 14.9879 10.0192 14.7946C10.0576 14.6012 10.1523 14.4236 10.2915 14.2842C10.4307 14.1448 10.608 14.0499 10.8011 14.0115C10.9942 13.973 11.1943 13.9927 11.3761 14.0682C11.558 14.1436 11.7134 14.2714 11.8228 14.4353C11.9321 14.5992 11.9905 14.7919 11.9905 14.989C11.9905 15.2534 11.8856 15.5069 11.699 15.6938C11.5123 15.8807 11.2592 15.9857 10.9953 15.9857V15.9857ZM14.9761 15.9857C14.7793 15.9857 14.5869 15.9273 14.4232 15.8177C14.2596 15.7082 14.132 15.5526 14.0567 15.3704C13.9813 15.1883 13.9616 14.9879 14 14.7946C14.0384 14.6012 14.1332 14.4236 14.2724 14.2842C14.4116 14.1448 14.5889 14.0499 14.782 14.0115C14.975 13.973 15.1751 13.9927 15.357 14.0682C15.5388 14.1436 15.6943 14.2714 15.8036 14.4353C15.913 14.5992 15.9714 14.7919 15.9714 14.989C15.9714 15.2534 15.8665 15.5069 15.6799 15.6938C15.4932 15.8807 15.2401 15.9857 14.9761 15.9857ZM18.957 15.9857C18.7602 15.9857 18.5678 15.9273 18.4041 15.8177C18.2404 15.7082 18.1129 15.5526 18.0376 15.3704C17.9622 15.1883 17.9425 14.9879 17.9809 14.7946C18.0193 14.6012 18.1141 14.4236 18.2533 14.2842C18.3925 14.1448 18.5698 14.0499 18.7629 14.0115C18.9559 13.973 19.156 13.9927 19.3379 14.0682C19.5197 14.1436 19.6752 14.2714 19.7845 14.4353C19.8939 14.5992 19.9522 14.7919 19.9522 14.989C19.9522 15.2534 19.8474 15.5069 19.6607 15.6938C19.4741 15.8807 19.221 15.9857 18.957 15.9857Z" fill="#3353D0"/>
</svg>
