<svg width="40" height="40" viewBox="0 0 40 40" fill="none" xmlns="http://www.w3.org/2000/svg">
<g filter="url(#filter0_d_2_120)">
<rect x="2" y="2" width="30" height="30" rx="5" fill="#E6ECFF"/>
<path d="M12.7174 16.0036H12.1731C11.4303 15.9765 10.6899 16.1037 9.99787 16.3775C9.30583 16.6512 8.67692 17.0656 8.15016 17.5948L8 17.7716V23H10.5527V20.0322L10.8968 19.6407L11.0532 19.4576C11.8677 18.613 12.8818 17.9915 14 17.6516C13.4402 17.2217 12.9986 16.6544 12.7174 16.0036V16.0036Z" fill="#3353D0"/>
<path d="M25.8705 17.5891C25.3513 17.0617 24.7315 16.6489 24.0494 16.3761C23.3673 16.1034 22.6376 15.9766 21.9054 16.0036C21.6809 16.0042 21.4566 16.0168 21.2333 16.0413C20.9509 16.6497 20.5276 17.1787 20 17.5828C21.1766 17.9149 22.2424 18.5674 23.0832 19.4703L23.2374 19.6465L23.5704 20.0366V23H26V17.7653L25.8705 17.5891Z" fill="#3353D0"/>
<path d="M12.7237 13.9755H12.93C12.8341 13.2196 12.9786 12.4543 13.3459 11.7721C13.7132 11.0898 14.2877 10.5198 15 10.1308C14.7418 9.76855 14.3856 9.47409 13.9662 9.27625C13.5468 9.07841 13.0787 8.98399 12.6077 9.00222C12.1366 9.02045 11.6788 9.15071 11.2791 9.38024C10.8793 9.60978 10.5513 9.93072 10.3272 10.3116C10.1031 10.6926 9.99057 11.1204 10.0006 11.5533C10.0107 11.9861 10.143 12.4092 10.3845 12.781C10.6261 13.1528 10.9687 13.4606 11.3787 13.6743C11.7888 13.888 12.2522 14.0002 12.7237 14V13.9755Z" fill="#3353D0"/>
<path d="M20.9468 13.5474C20.9548 13.6879 20.9548 13.8288 20.9468 13.9694C21.073 13.988 21.2005 13.9982 21.3283 14H21.4532C21.9171 13.977 22.3666 13.8427 22.758 13.6102C23.1495 13.3776 23.4695 13.0548 23.687 12.6731C23.9044 12.2914 24.0119 11.8638 23.999 11.432C23.986 11.0002 23.853 10.5789 23.613 10.209C23.373 9.83918 23.0341 9.53345 22.6294 9.32158C22.2246 9.10971 21.7677 8.99892 21.3032 9.00001C20.8388 9.00109 20.3825 9.11402 19.9789 9.32778C19.5752 9.54154 19.238 9.84886 19 10.2198C19.5953 10.5813 20.0848 11.0745 20.4245 11.6553C20.7643 12.2361 20.9438 12.8862 20.9468 13.5474V13.5474Z" fill="#3353D0"/>
<path d="M17 17C18.6569 17 20 15.6569 20 14C20 12.3431 18.6569 11 17 11C15.3431 11 14 12.3431 14 14C14 15.6569 15.3431 17 17 17Z" fill="#3353D0"/>
<path d="M17.0102 19.0058C16.1212 18.9718 15.2341 19.1085 14.4023 19.4076C13.5706 19.7067 12.8113 20.162 12.1702 20.7462L12 20.9267V25.0071C12.0027 25.14 12.0329 25.2711 12.0891 25.393C12.1453 25.5148 12.2263 25.6249 12.3274 25.7171C12.4286 25.8093 12.5479 25.8817 12.6786 25.9302C12.8093 25.9787 12.9488 26.0024 13.0892 25.9998H20.9108C21.0512 26.0024 21.1907 25.9787 21.3214 25.9302C21.4521 25.8817 21.5714 25.8093 21.6726 25.7171C21.7737 25.6249 21.8547 25.5148 21.9109 25.393C21.9671 25.2711 21.9973 25.14 22 25.0071V20.9396L21.8366 20.7462C21.1997 20.1602 20.443 19.7036 19.6131 19.4043C18.7832 19.105 17.8975 18.9694 17.0102 19.0058V19.0058Z" fill="#3353D0"/>
<rect x="2.5" y="2.5" width="29" height="29" rx="4.5" stroke="white"/>
</g>
<defs>
<filter id="filter0_d_2_120" x="0" y="0" width="40" height="40" filterUnits="userSpaceOnUse" color-interpolation-filters="sRGB">
<feFlood flood-opacity="0" result="BackgroundImageFix"/>
<feColorMatrix in="SourceAlpha" type="matrix" values="0 0 0 0 0 0 0 0 0 0 0 0 0 0 0 0 0 0 127 0" result="hardAlpha"/>
<feOffset dx="3" dy="3"/>
<feGaussianBlur stdDeviation="2.5"/>
<feComposite in2="hardAlpha" operator="out"/>
<feColorMatrix type="matrix" values="0 0 0 0 0.695833 0 0 0 0 0.768833 0 0 0 0 1 0 0 0 0.7 0"/>
<feBlend mode="normal" in2="BackgroundImageFix" result="effect1_dropShadow_2_120"/>
<feBlend mode="normal" in="SourceGraphic" in2="effect1_dropShadow_2_120" result="shape"/>
</filter>
</defs>
</svg>
