<svg width="30" height="30" viewBox="0 0 30 30" fill="none" xmlns="http://www.w3.org/2000/svg">
<rect width="30" height="30" rx="5" fill="#E6ECFF"/>
<path d="M14.5 6C9.80603 6 6 9.80603 6 14.5C6 19.194 9.80603 23 14.5 23C19.194 23 23 19.194 23 14.5C23 9.80603 19.194 6 14.5 6ZM17.8488 17.1126L17.3061 17.8526C17.2943 17.8687 17.2795 17.8823 17.2624 17.8926C17.2453 17.903 17.2263 17.9099 17.2066 17.9129C17.1868 17.9159 17.1667 17.9149 17.1473 17.9101C17.1279 17.9053 17.1097 17.8967 17.0936 17.8848L13.9555 15.5967C13.9359 15.5826 13.92 15.5641 13.9091 15.5426C13.8982 15.5212 13.8927 15.4974 13.8929 15.4733V10.25C13.8929 10.1665 13.9612 10.0982 14.0446 10.0982H14.9573C15.0407 10.0982 15.109 10.1665 15.109 10.25V14.9459L17.8146 16.902C17.8829 16.9494 17.8981 17.0443 17.8488 17.1126Z" fill="#3353D0"/>
</svg>
