<svg width="30" height="30" viewBox="0 0 30 30" fill="none" xmlns="http://www.w3.org/2000/svg">
<rect width="30" height="30" rx="5" fill="#E6ECFF"/>
<path d="M14.5 7C12.7767 7.00197 11.1246 7.66484 9.90606 8.84321C8.68751 10.0216 8.00204 11.6192 8.00001 13.2857C7.99794 14.6476 8.45795 15.9724 9.30946 17.0571C9.30946 17.0571 9.48673 17.2829 9.51569 17.3154L14.5 23L19.4867 17.3126C19.5127 17.2823 19.6905 17.0571 19.6905 17.0571L19.6911 17.0554C20.5422 15.9712 21.002 14.6469 21 13.2857C20.998 11.6192 20.3125 10.0216 19.0939 8.84321C17.8754 7.66484 16.2233 7.00197 14.5 7V7ZM14.5 15.5714C14.0325 15.5714 13.5755 15.4374 13.1868 15.1862C12.7981 14.9351 12.4952 14.5781 12.3163 14.1604C12.1374 13.7428 12.0906 13.2832 12.1818 12.8398C12.273 12.3964 12.4981 11.9891 12.8287 11.6695C13.1592 11.3498 13.5804 11.1321 14.0389 11.0439C14.4974 10.9557 14.9726 11.001 15.4045 11.174C15.8364 11.347 16.2056 11.64 16.4653 12.0158C16.725 12.3917 16.8636 12.8336 16.8636 13.2857C16.8629 13.8917 16.6136 14.4726 16.1705 14.9011C15.7274 15.3296 15.1266 15.5707 14.5 15.5714V15.5714Z" fill="#3353D0"/>
</svg>
