<svg width="30" height="30" viewBox="0 0 30 30" fill="none" xmlns="http://www.w3.org/2000/svg">
<rect width="30" height="30" rx="5" fill="#E6ECFF"/>
<path d="M19 11.3333C19 10.4493 18.6313 9.60143 17.9749 8.97631C17.3185 8.35119 16.4283 8 15.5 8H8.5C7.57174 8 6.6815 8.35119 6.02513 8.97631C5.36875 9.60143 5 10.4493 5 11.3333V19.6667C5 20.5507 5.36875 21.3986 6.02513 22.0237C6.6815 22.6488 7.57174 23 8.5 23H15.5C16.4283 23 17.3185 22.6488 17.9749 22.0237C18.6313 21.3986 19 20.5507 19 19.6667V11.3333ZM20.75 12.73V18.27L23.7845 21.0067C23.9708 21.1749 24.2048 21.2874 24.4575 21.3302C24.7103 21.373 24.9707 21.3443 25.2065 21.2477C25.4423 21.151 25.6431 20.9906 25.7842 20.7863C25.9252 20.582 26.0002 20.3428 26 20.0983V10.9017C26.0002 10.6572 25.9252 10.418 25.7842 10.2137C25.6431 10.0094 25.4423 9.84901 25.2065 9.75234C24.9707 9.65567 24.7103 9.62697 24.4575 9.66981C24.2048 9.71264 23.9708 9.82512 23.7845 9.99333L20.75 12.73Z" fill="#3353D0"/>
</svg>
