<svg width="30" height="30" viewBox="0 0 30 30" fill="none" xmlns="http://www.w3.org/2000/svg">
<rect width="30" height="30" rx="5" fill="#E6ECFF"/>
<path d="M8.25 6C7.65326 6 7.08097 6.23705 6.65901 6.65901C6.23705 7.08097 6 7.65326 6 8.25V21.75C6 22.3467 6.23705 22.919 6.65901 23.341C7.08097 23.7629 7.65326 24 8.25 24H21.75C22.3467 24 22.919 23.7629 23.341 23.341C23.7629 22.919 24 22.3467 24 21.75V8.25C24 7.65326 23.7629 7.08097 23.341 6.65901C22.919 6.23705 22.3467 6 21.75 6H8.25ZM12.0233 11.2268L15 14.2046L17.9768 11.2268C18.029 11.1745 18.0911 11.133 18.1595 11.1047C18.2278 11.0764 18.301 11.0618 18.375 11.0618C18.449 11.0618 18.5222 11.0764 18.5905 11.1047C18.6589 11.133 18.721 11.1745 18.7733 11.2268C18.8255 11.279 18.867 11.3411 18.8953 11.4095C18.9236 11.4778 18.9382 11.551 18.9382 11.625C18.9382 11.699 18.9236 11.7722 18.8953 11.8405C18.867 11.9089 18.8255 11.971 18.7733 12.0233L15.7954 15L18.7733 17.9768C18.8255 18.029 18.867 18.0911 18.8953 18.1595C18.9236 18.2278 18.9382 18.301 18.9382 18.375C18.9382 18.449 18.9236 18.5222 18.8953 18.5905C18.867 18.6589 18.8255 18.721 18.7733 18.7733C18.721 18.8255 18.6589 18.867 18.5905 18.8953C18.5222 18.9236 18.449 18.9382 18.375 18.9382C18.301 18.9382 18.2278 18.9236 18.1595 18.8953C18.0911 18.867 18.029 18.8255 17.9768 18.7733L15 15.7954L12.0233 18.7733C11.971 18.8255 11.9089 18.867 11.8405 18.8953C11.7722 18.9236 11.699 18.9382 11.625 18.9382C11.551 18.9382 11.4778 18.9236 11.4095 18.8953C11.3411 18.867 11.279 18.8255 11.2268 18.7733C11.1745 18.721 11.133 18.6589 11.1047 18.5905C11.0764 18.5222 11.0618 18.449 11.0618 18.375C11.0618 18.301 11.0764 18.2278 11.1047 18.1595C11.133 18.0911 11.1745 18.029 11.2268 17.9768L14.2046 15L11.2268 12.0233C11.1211 11.9176 11.0618 11.7744 11.0618 11.625C11.0618 11.4756 11.1211 11.3324 11.2268 11.2268C11.3324 11.1211 11.4756 11.0618 11.625 11.0618C11.7744 11.0618 11.9176 11.1211 12.0233 11.2268Z" fill="#3353D0"/>
</svg>
